<?xml version="1.0" encoding="UTF-8" standalone="no"?><svg xmlns="http://www.w3.org/2000/svg" xmlns:xlink="http://www.w3.org/1999/xlink" fill="#000000" height="424" preserveAspectRatio="xMidYMid meet" version="1" viewBox="-0.1 -0.1 600.2 424.0" width="600.2" zoomAndPan="magnify"><defs><clipPath id="a"><path d="M 0 356 L 600 356 L 600 423.890625 L 0 423.890625 Z M 0 356"/></clipPath><clipPath id="b"><path d="M 398 356 L 546 356 L 546 423.890625 L 398 423.890625 Z M 398 356"/></clipPath><clipPath id="c"><path d="M 376 356 L 492 356 L 492 423.890625 L 376 423.890625 Z M 376 356"/></clipPath><clipPath id="d"><path d="M 354 356 L 437 356 L 437 423.890625 L 354 423.890625 Z M 354 356"/></clipPath><clipPath id="e"><path d="M 332 356 L 383 356 L 383 423.890625 L 332 423.890625 Z M 332 356"/></clipPath><clipPath id="f"><path d="M 310 356 L 328 356 L 328 423.890625 L 310 423.890625 Z M 310 356"/></clipPath><clipPath id="g"><path d="M 272 356 L 290 356 L 290 423.890625 L 272 423.890625 Z M 272 356"/></clipPath><clipPath id="h"><path d="M 217 356 L 268 356 L 268 423.890625 L 217 423.890625 Z M 217 356"/></clipPath><clipPath id="i"><path d="M 163 356 L 246 356 L 246 423.890625 L 163 423.890625 Z M 163 356"/></clipPath><clipPath id="j"><path d="M 108 356 L 224 356 L 224 423.890625 L 108 423.890625 Z M 108 356"/></clipPath><clipPath id="k"><path d="M 54 356 L 202 356 L 202 423.890625 L 54 423.890625 Z M 54 356"/></clipPath><clipPath id="l"><path d="M 419 0 L 600 0 L 600 423.890625 L 419 423.890625 Z M 419 0"/></clipPath><clipPath id="m"><path d="M 0 0 L 181 0 L 181 423.890625 L 0 423.890625 Z M 0 0"/></clipPath></defs><g><g clip-path="url(#a)" id="change1_3"><path d="M 4.839844 422.425781 L 595.164062 422.425781 L 420.59375 357.917969 L 179.410156 357.917969 Z M 599.265625 423.890625 L 0.738281 423.890625 C 0.382812 423.890625 0.0820312 423.636719 0.015625 423.285156 C -0.046875 422.9375 0.152344 422.59375 0.484375 422.472656 L 179.023438 356.496094 C 179.101562 356.46875 179.191406 356.453125 179.277344 356.453125 L 420.726562 356.453125 C 420.808594 356.453125 420.898438 356.46875 420.976562 356.496094 L 599.519531 422.472656 C 599.855469 422.59375 600.050781 422.9375 599.984375 423.285156 C 599.925781 423.636719 599.621094 423.890625 599.265625 423.890625" fill="#f4f4f4"/></g><g id="change1_4"><path d="M 563.796875 410.785156 L 36.203125 410.785156 C 35.800781 410.785156 35.472656 410.457031 35.472656 410.054688 C 35.472656 409.644531 35.800781 409.320312 36.203125 409.320312 L 563.796875 409.320312 C 564.203125 409.320312 564.53125 409.644531 564.53125 410.054688 C 564.53125 410.457031 564.203125 410.785156 563.796875 410.785156" fill="#f4f4f4"/></g><g id="change1_5"><path d="M 535.847656 400.460938 L 64.15625 400.460938 C 63.75 400.460938 63.421875 400.132812 63.421875 399.726562 C 63.421875 399.320312 63.75 398.992188 64.15625 398.992188 L 535.847656 398.992188 C 536.253906 398.992188 536.582031 399.320312 536.582031 399.726562 C 536.582031 400.132812 536.253906 400.460938 535.847656 400.460938" fill="#f4f4f4"/></g><g id="change1_6"><path d="M 513.253906 392.109375 L 86.753906 392.109375 C 86.347656 392.109375 86.019531 391.78125 86.019531 391.378906 C 86.019531 390.96875 86.347656 390.644531 86.753906 390.644531 L 513.253906 390.644531 C 513.660156 390.644531 513.984375 390.96875 513.984375 391.378906 C 513.984375 391.78125 513.660156 392.109375 513.253906 392.109375" fill="#f4f4f4"/></g><g id="change1_7"><path d="M 494.605469 385.21875 L 105.394531 385.21875 C 104.992188 385.21875 104.660156 384.890625 104.660156 384.484375 C 104.660156 384.082031 104.992188 383.753906 105.394531 383.753906 L 494.605469 383.753906 C 495.011719 383.753906 495.339844 384.082031 495.339844 384.484375 C 495.339844 384.890625 495.011719 385.21875 494.605469 385.21875" fill="#f4f4f4"/></g><g id="change1_8"><path d="M 478.960938 379.4375 L 121.042969 379.4375 C 120.636719 379.4375 120.308594 379.109375 120.308594 378.707031 C 120.308594 378.300781 120.636719 377.972656 121.042969 377.972656 L 478.960938 377.972656 C 479.367188 377.972656 479.695312 378.300781 479.695312 378.707031 C 479.695312 379.109375 479.367188 379.4375 478.960938 379.4375" fill="#f4f4f4"/></g><g id="change1_9"><path d="M 465.640625 374.515625 L 134.359375 374.515625 C 133.953125 374.515625 133.625 374.191406 133.625 373.785156 C 133.625 373.378906 133.953125 373.050781 134.359375 373.050781 L 465.640625 373.050781 C 466.050781 373.050781 466.375 373.378906 466.375 373.785156 C 466.375 374.191406 466.050781 374.515625 465.640625 374.515625" fill="#f4f4f4"/></g><g id="change1_10"><path d="M 454.167969 370.277344 L 145.832031 370.277344 C 145.425781 370.277344 145.097656 369.949219 145.097656 369.546875 C 145.097656 369.140625 145.425781 368.8125 145.832031 368.8125 L 454.167969 368.8125 C 454.574219 368.8125 454.902344 369.140625 454.902344 369.546875 C 454.902344 369.949219 454.574219 370.277344 454.167969 370.277344" fill="#f4f4f4"/></g><g id="change1_11"><path d="M 444.1875 366.589844 L 155.820312 366.589844 C 155.414062 366.589844 155.085938 366.261719 155.085938 365.855469 C 155.085938 365.449219 155.414062 365.121094 155.820312 365.121094 L 444.1875 365.121094 C 444.589844 365.121094 444.914062 365.449219 444.914062 365.855469 C 444.914062 366.261719 444.589844 366.589844 444.1875 366.589844" fill="#f4f4f4"/></g><g id="change1_12"><path d="M 435.414062 363.34375 L 164.589844 363.34375 C 164.183594 363.34375 163.855469 363.019531 163.855469 362.613281 C 163.855469 362.207031 164.183594 361.878906 164.589844 361.878906 L 435.414062 361.878906 C 435.816406 361.878906 436.144531 362.207031 436.144531 362.613281 C 436.144531 363.019531 435.816406 363.34375 435.414062 363.34375" fill="#f4f4f4"/></g><g id="change1_13"><path d="M 427.648438 360.476562 L 172.355469 360.476562 C 171.949219 360.476562 171.621094 360.148438 171.621094 359.746094 C 171.621094 359.339844 171.949219 359.011719 172.355469 359.011719 L 427.648438 359.011719 C 428.050781 359.011719 428.378906 359.339844 428.378906 359.746094 C 428.378906 360.148438 428.050781 360.476562 427.648438 360.476562" fill="#f4f4f4"/></g><g clip-path="url(#b)" id="change1_2"><path d="M 544.851562 423.890625 C 544.75 423.890625 544.648438 423.871094 544.550781 423.828125 L 398.46875 357.855469 C 398.101562 357.6875 397.9375 357.253906 398.105469 356.882812 C 398.273438 356.511719 398.707031 356.355469 399.078125 356.515625 L 545.15625 422.488281 C 545.527344 422.65625 545.691406 423.089844 545.523438 423.460938 C 545.402344 423.730469 545.132812 423.890625 544.851562 423.890625" fill="#f4f4f4"/></g><g clip-path="url(#c)" id="change1_103"><path d="M 490.441406 423.890625 C 490.320312 423.890625 490.191406 423.859375 490.074219 423.792969 L 376.457031 357.820312 C 376.105469 357.617188 375.984375 357.167969 376.191406 356.816406 C 376.398438 356.464844 376.839844 356.347656 377.191406 356.550781 L 490.808594 422.523438 C 491.160156 422.726562 491.28125 423.175781 491.078125 423.527344 C 490.941406 423.765625 490.691406 423.890625 490.441406 423.890625" fill="#f4f4f4"/></g><g clip-path="url(#d)" id="change1_99"><path d="M 436.027344 423.890625 C 435.863281 423.890625 435.699219 423.839844 435.570312 423.726562 L 354.414062 357.757812 C 354.09375 357.496094 354.046875 357.039062 354.304688 356.722656 C 354.5625 356.410156 355.03125 356.363281 355.339844 356.617188 L 436.492188 422.589844 C 436.808594 422.84375 436.855469 423.304688 436.597656 423.621094 C 436.453125 423.800781 436.242188 423.890625 436.027344 423.890625" fill="#f4f4f4"/></g><g clip-path="url(#e)" id="change1_102"><path d="M 381.621094 423.890625 C 381.394531 423.890625 381.171875 423.789062 381.03125 423.597656 L 332.335938 357.621094 C 332.09375 357.296875 332.167969 356.835938 332.488281 356.597656 C 332.816406 356.351562 333.277344 356.421875 333.515625 356.75 L 382.207031 422.722656 C 382.449219 423.046875 382.382812 423.507812 382.054688 423.746094 C 381.921875 423.84375 381.769531 423.890625 381.621094 423.890625" fill="#f4f4f4"/></g><g clip-path="url(#f)" id="change1_98"><path d="M 327.207031 423.890625 C 326.878906 423.890625 326.574219 423.667969 326.496094 423.332031 L 310.261719 357.363281 C 310.164062 356.96875 310.40625 356.570312 310.800781 356.476562 C 311.199219 356.367188 311.589844 356.617188 311.6875 357.011719 L 327.917969 422.980469 C 328.015625 423.378906 327.777344 423.773438 327.382812 423.871094 C 327.324219 423.886719 327.261719 423.890625 327.207031 423.890625" fill="#f4f4f4"/></g><g clip-path="url(#g)" id="change1_97"><path d="M 272.800781 423.890625 C 272.230469 423.773438 271.984375 423.378906 272.082031 422.980469 L 288.3125 357.011719 C 288.410156 356.617188 288.804688 356.378906 289.199219 356.476562 C 289.59375 356.570312 289.835938 356.96875 289.738281 357.363281 L 273.507812 423.332031 C 273.425781 423.667969 273.125 423.890625 272.800781 423.890625" fill="#f4f4f4"/></g><g clip-path="url(#h)" id="change1_1"><path d="M 218.382812 423.890625 C 218.230469 423.890625 218.078125 423.84375 217.945312 423.746094 C 217.625 423.507812 217.554688 423.046875 217.792969 422.722656 L 266.488281 356.75 C 266.730469 356.421875 267.1875 356.351562 267.511719 356.597656 C 267.839844 356.835938 267.90625 357.296875 267.664062 357.621094 L 218.976562 423.597656 C 218.832031 423.789062 218.605469 423.890625 218.382812 423.890625" fill="#f4f4f4"/></g><g clip-path="url(#i)" id="change1_100"><path d="M 163.972656 423.890625 C 163.757812 423.890625 163.546875 423.800781 163.402344 423.621094 C 163.144531 423.304688 163.195312 422.84375 163.511719 422.589844 L 244.667969 356.617188 C 244.980469 356.363281 245.441406 356.410156 245.695312 356.722656 C 245.953125 357.039062 245.90625 357.496094 245.59375 357.757812 L 164.4375 423.726562 C 164.300781 423.839844 164.136719 423.890625 163.972656 423.890625" fill="#f4f4f4"/></g><g clip-path="url(#j)" id="change1_104"><path d="M 109.558594 423.890625 C 109.308594 423.890625 109.058594 423.765625 108.925781 423.527344 C 108.722656 423.175781 108.839844 422.726562 109.191406 422.523438 L 222.808594 356.550781 C 223.164062 356.351562 223.609375 356.46875 223.808594 356.816406 C 224.015625 357.167969 223.894531 357.617188 223.546875 357.820312 L 109.929688 423.792969 C 109.8125 423.859375 109.6875 423.890625 109.558594 423.890625" fill="#f4f4f4"/></g><g clip-path="url(#k)" id="change1_96"><path d="M 55.148438 423.890625 C 54.867188 423.890625 54.601562 423.730469 54.480469 423.460938 C 54.316406 423.089844 54.480469 422.65625 54.847656 422.488281 L 200.929688 356.515625 C 201.296875 356.355469 201.730469 356.515625 201.894531 356.882812 C 202.0625 357.253906 201.898438 357.6875 201.53125 357.855469 L 55.453125 423.828125 C 55.351562 423.871094 55.25 423.890625 55.148438 423.890625" fill="#f4f4f4"/></g><g id="change1_14"><path d="M 179.601562 197.925781 L 420.398438 197.925781 L 597.617188 1.472656 L 2.386719 1.472656 Z M 420.71875 199.390625 L 179.277344 199.390625 C 179.070312 199.390625 178.875 199.300781 178.734375 199.144531 L 0.191406 1.230469 C -0.00390625 1.015625 -0.0507812 0.707031 0.0664062 0.441406 C 0.183594 0.175781 0.445312 0.0078125 0.734375 0.0078125 L 599.261719 0.0078125 C 599.554688 0.0078125 599.816406 0.175781 599.933594 0.441406 C 600.050781 0.707031 600.003906 1.015625 599.808594 1.230469 L 421.269531 199.144531 C 421.128906 199.300781 420.929688 199.390625 420.71875 199.390625" fill="#f4f4f4"/></g><g id="change1_15"><path d="M 563.796875 40.789062 L 36.203125 40.789062 C 35.800781 40.789062 35.46875 40.460938 35.46875 40.058594 C 35.46875 39.652344 35.800781 39.324219 36.203125 39.324219 L 563.796875 39.324219 C 564.199219 39.324219 564.527344 39.652344 564.527344 40.058594 C 564.527344 40.460938 564.199219 40.789062 563.796875 40.789062" fill="#f4f4f4"/></g><g id="change1_16"><path d="M 535.84375 71.773438 L 64.152344 71.773438 C 63.75 71.773438 63.417969 71.445312 63.417969 71.042969 C 63.417969 70.632812 63.75 70.308594 64.152344 70.308594 L 535.84375 70.308594 C 536.25 70.308594 536.578125 70.632812 536.578125 71.042969 C 536.578125 71.445312 536.25 71.773438 535.84375 71.773438" fill="#f4f4f4"/></g><g id="change1_17"><path d="M 513.246094 96.820312 L 86.75 96.820312 C 86.34375 96.820312 86.015625 96.492188 86.015625 96.089844 C 86.015625 95.679688 86.34375 95.355469 86.75 95.355469 L 513.246094 95.355469 C 513.652344 95.355469 513.980469 95.679688 513.980469 96.089844 C 513.980469 96.492188 513.652344 96.820312 513.246094 96.820312" fill="#f4f4f4"/></g><g id="change1_18"><path d="M 494.605469 117.488281 L 105.394531 117.488281 C 104.988281 117.488281 104.660156 117.160156 104.660156 116.753906 C 104.660156 116.347656 104.988281 116.023438 105.394531 116.023438 L 494.605469 116.023438 C 495.011719 116.023438 495.339844 116.347656 495.339844 116.753906 C 495.339844 117.160156 495.011719 117.488281 494.605469 117.488281" fill="#f4f4f4"/></g><g id="change1_19"><path d="M 478.957031 134.832031 L 121.039062 134.832031 C 120.636719 134.832031 120.304688 134.507812 120.304688 134.101562 C 120.304688 133.695312 120.636719 133.367188 121.039062 133.367188 L 478.957031 133.367188 C 479.363281 133.367188 479.691406 133.695312 479.691406 134.101562 C 479.691406 134.507812 479.363281 134.832031 478.957031 134.832031" fill="#f4f4f4"/></g><g id="change1_20"><path d="M 465.640625 149.597656 L 134.359375 149.597656 C 133.953125 149.597656 133.625 149.269531 133.625 148.863281 C 133.625 148.457031 133.953125 148.128906 134.359375 148.128906 L 465.640625 148.128906 C 466.050781 148.128906 466.375 148.457031 466.375 148.863281 C 466.375 149.269531 466.050781 149.597656 465.640625 149.597656" fill="#f4f4f4"/></g><g id="change1_21"><path d="M 454.167969 162.3125 L 145.832031 162.3125 C 145.425781 162.3125 145.097656 161.984375 145.097656 161.582031 C 145.097656 161.175781 145.425781 160.847656 145.832031 160.847656 L 454.167969 160.847656 C 454.574219 160.847656 454.902344 161.175781 454.902344 161.582031 C 454.902344 161.984375 454.574219 162.3125 454.167969 162.3125" fill="#f4f4f4"/></g><g id="change1_22"><path d="M 444.183594 173.382812 L 155.820312 173.382812 C 155.414062 173.382812 155.085938 173.054688 155.085938 172.648438 C 155.085938 172.246094 155.414062 171.914062 155.820312 171.914062 L 444.183594 171.914062 C 444.589844 171.914062 444.914062 172.246094 444.914062 172.648438 C 444.914062 173.054688 444.589844 173.382812 444.183594 173.382812" fill="#f4f4f4"/></g><g id="change1_23"><path d="M 435.410156 183.105469 L 164.589844 183.105469 C 164.183594 183.105469 163.855469 182.777344 163.855469 182.371094 C 163.855469 181.96875 164.183594 181.640625 164.589844 181.640625 L 435.410156 181.640625 C 435.816406 181.640625 436.144531 181.96875 436.144531 182.371094 C 436.144531 182.777344 435.816406 183.105469 435.410156 183.105469" fill="#f4f4f4"/></g><g id="change1_24"><path d="M 427.644531 191.714844 L 172.355469 191.714844 C 171.949219 191.714844 171.621094 191.386719 171.621094 190.980469 C 171.621094 190.574219 171.949219 190.25 172.355469 190.25 L 427.644531 190.25 C 428.050781 190.25 428.378906 190.574219 428.378906 190.980469 C 428.378906 191.386719 428.050781 191.714844 427.644531 191.714844" fill="#f4f4f4"/></g><g id="change1_25"><path d="M 201.226562 199.390625 C 201.003906 199.390625 200.777344 199.285156 200.636719 199.09375 L 54.558594 1.175781 C 54.316406 0.847656 54.386719 0.390625 54.714844 0.152344 C 55.035156 -0.09375 55.5 -0.0234375 55.738281 0.304688 L 201.816406 198.222656 C 202.058594 198.546875 201.988281 199.007812 201.660156 199.246094 C 201.53125 199.34375 201.375 199.390625 201.226562 199.390625" fill="#f4f4f4"/></g><g id="change1_26"><path d="M 223.179688 199.390625 C 222.921875 199.390625 222.679688 199.257812 222.539062 199.019531 L 108.925781 1.105469 C 108.71875 0.753906 108.839844 0.308594 109.195312 0.105469 C 109.546875 -0.0976562 109.996094 0.0234375 110.195312 0.375 L 223.8125 198.289062 C 224.015625 198.640625 223.894531 199.089844 223.542969 199.292969 C 223.425781 199.359375 223.300781 199.390625 223.179688 199.390625" fill="#f4f4f4"/></g><g id="change1_27"><path d="M 245.125 199.390625 C 244.835938 199.390625 244.5625 199.21875 244.445312 198.9375 L 163.289062 1.015625 C 163.140625 0.644531 163.316406 0.214844 163.691406 0.0625 C 164.066406 -0.09375 164.496094 0.0859375 164.652344 0.460938 L 245.800781 198.378906 C 245.957031 198.753906 245.78125 199.179688 245.40625 199.335938 C 245.3125 199.371094 245.21875 199.390625 245.125 199.390625" fill="#f4f4f4"/></g><g id="change1_28"><path d="M 267.074219 199.390625 C 266.742188 199.390625 266.445312 199.164062 266.367188 198.832031 L 217.671875 0.914062 C 217.574219 0.519531 217.816406 0.121094 218.207031 0.0273438 C 218.59375 -0.078125 219 0.171875 219.097656 0.5625 L 267.785156 198.480469 C 267.886719 198.875 267.644531 199.273438 267.25 199.367188 C 267.191406 199.382812 267.132812 199.390625 267.074219 199.390625" fill="#f4f4f4"/></g><g id="change1_29"><path d="M 289.027344 199.390625 C 288.648438 199.390625 288.324219 199.101562 288.292969 198.714844 L 272.066406 0.796875 C 272.027344 0.394531 272.332031 0.0429688 272.734375 0.0117188 C 273.132812 -0.03125 273.492188 0.273438 273.523438 0.679688 L 289.757812 198.597656 C 289.789062 199.003906 289.488281 199.355469 289.082031 199.386719 C 289.066406 199.390625 289.046875 199.390625 289.027344 199.390625" fill="#f4f4f4"/></g><g id="change1_30"><path d="M 310.972656 199.390625 C 310.511719 199.355469 310.210938 199.003906 310.246094 198.597656 L 326.472656 0.679688 C 326.503906 0.277344 326.808594 -0.03125 327.261719 0.0117188 C 327.671875 0.0429688 327.96875 0.394531 327.9375 0.796875 L 311.707031 198.714844 C 311.675781 199.101562 311.351562 199.390625 310.972656 199.390625" fill="#f4f4f4"/></g><g id="change1_31"><path d="M 332.925781 199.390625 C 332.355469 199.273438 332.117188 198.875 332.214844 198.480469 L 380.90625 0.5625 C 381.003906 0.175781 381.394531 -0.0664062 381.792969 0.0273438 C 382.1875 0.121094 382.429688 0.519531 382.332031 0.914062 L 333.636719 198.832031 C 333.554688 199.164062 333.253906 199.390625 332.925781 199.390625" fill="#f4f4f4"/></g><g id="change1_32"><path d="M 354.871094 199.390625 C 354.78125 199.390625 354.6875 199.371094 354.597656 199.335938 C 354.222656 199.179688 354.039062 198.753906 354.195312 198.378906 L 435.351562 0.460938 C 435.503906 0.0859375 435.925781 -0.0976562 436.308594 0.0625 C 436.683594 0.214844 436.863281 0.644531 436.710938 1.015625 L 355.554688 198.9375 C 355.4375 199.21875 355.160156 199.390625 354.871094 199.390625" fill="#f4f4f4"/></g><g id="change1_33"><path d="M 376.824219 199.390625 C 376.703125 199.390625 376.574219 199.359375 376.464844 199.292969 C 376.105469 199.089844 375.984375 198.640625 376.1875 198.289062 L 489.804688 0.375 C 490.003906 0.0234375 490.460938 -0.0976562 490.804688 0.105469 C 491.15625 0.308594 491.277344 0.753906 491.078125 1.105469 L 377.464844 199.019531 C 377.328125 199.257812 377.082031 199.390625 376.824219 199.390625" fill="#f4f4f4"/></g><g id="change1_34"><path d="M 398.773438 199.390625 C 398.625 199.390625 398.46875 199.34375 398.339844 199.246094 C 398.011719 199.007812 397.941406 198.546875 398.183594 198.222656 L 544.265625 0.304688 C 544.503906 -0.0195312 544.964844 -0.0898438 545.289062 0.152344 C 545.617188 0.390625 545.6875 0.847656 545.441406 1.175781 L 399.363281 199.09375 C 399.21875 199.285156 399 199.390625 398.773438 199.390625" fill="#f4f4f4"/></g><g clip-path="url(#l)" id="change1_101"><path d="M 421.457031 356.675781 L 598.53125 422.105469 L 598.53125 2.648438 L 421.457031 198.9375 Z M 599.265625 423.890625 C 599.183594 423.890625 599.09375 423.875 599.011719 423.84375 L 420.472656 357.871094 C 420.183594 357.769531 419.992188 357.492188 419.992188 357.1875 L 419.992188 198.65625 C 419.992188 198.476562 420.054688 198.300781 420.179688 198.164062 L 598.71875 0.25 C 598.921875 0.0234375 599.242188 -0.0546875 599.527344 0.0546875 C 599.8125 0.164062 600 0.433594 600 0.738281 L 600 423.15625 C 600 423.398438 599.882812 423.621094 599.6875 423.757812 C 599.558594 423.847656 599.410156 423.890625 599.265625 423.890625" fill="#f4f4f4"/></g><g id="change1_35"><path d="M 563.796875 410.785156 C 563.390625 410.785156 563.0625 410.457031 563.0625 410.054688 L 563.0625 40.058594 C 563.0625 39.652344 563.390625 39.324219 563.796875 39.324219 C 564.199219 39.324219 564.527344 39.652344 564.527344 40.058594 L 564.53125 410.054688 C 564.53125 410.457031 564.203125 410.785156 563.796875 410.785156" fill="#f4f4f4"/></g><g id="change1_36"><path d="M 535.847656 400.460938 C 535.441406 400.460938 535.113281 400.132812 535.113281 399.726562 L 535.113281 71.042969 C 535.113281 70.632812 535.441406 70.308594 535.84375 70.308594 C 536.25 70.308594 536.578125 70.632812 536.578125 71.042969 L 536.582031 399.726562 C 536.582031 400.132812 536.253906 400.460938 535.847656 400.460938" fill="#f4f4f4"/></g><g id="change1_37"><path d="M 513.253906 392.109375 C 512.851562 392.109375 512.523438 391.785156 512.519531 391.382812 L 509.296875 99.667969 C 509.292969 99.261719 509.613281 98.929688 510.019531 98.925781 C 510.433594 98.925781 510.757812 99.25 510.765625 99.652344 L 513.984375 391.367188 C 513.992188 391.773438 513.664062 392.105469 513.261719 392.109375 L 513.253906 392.109375" fill="#f4f4f4"/></g><g id="change1_38"><path d="M 494.605469 385.21875 C 494.199219 385.21875 493.871094 384.890625 493.871094 384.484375 L 493.871094 116.753906 C 493.871094 116.347656 494.199219 116.023438 494.605469 116.023438 C 495.011719 116.023438 495.339844 116.347656 495.339844 116.753906 L 495.339844 384.484375 C 495.339844 384.890625 495.011719 385.21875 494.605469 385.21875" fill="#f4f4f4"/></g><g id="change1_39"><path d="M 478.960938 379.4375 C 478.554688 379.4375 478.226562 379.109375 478.226562 378.707031 L 478.226562 134.101562 C 478.226562 133.695312 478.554688 133.367188 478.957031 133.367188 C 479.363281 133.367188 479.691406 133.695312 479.691406 134.101562 L 479.695312 378.707031 C 479.695312 379.109375 479.367188 379.4375 478.960938 379.4375" fill="#f4f4f4"/></g><g id="change1_40"><path d="M 465.640625 374.515625 C 465.234375 374.515625 464.90625 374.191406 464.90625 373.785156 L 464.90625 148.863281 C 464.90625 148.457031 465.234375 148.128906 465.640625 148.128906 C 466.050781 148.128906 466.375 148.457031 466.375 148.863281 L 466.375 373.785156 C 466.375 374.191406 466.050781 374.515625 465.640625 374.515625" fill="#f4f4f4"/></g><g id="change1_41"><path d="M 454.167969 370.277344 C 453.765625 370.277344 453.4375 369.949219 453.4375 369.546875 L 453.4375 161.582031 C 453.4375 161.175781 453.765625 160.847656 454.167969 160.847656 C 454.574219 160.847656 454.902344 161.175781 454.902344 161.582031 L 454.902344 369.546875 C 454.902344 369.949219 454.574219 370.277344 454.167969 370.277344" fill="#f4f4f4"/></g><g id="change1_42"><path d="M 444.1875 366.589844 C 443.78125 366.589844 443.453125 366.261719 443.453125 365.855469 L 443.449219 172.648438 C 443.449219 172.246094 443.78125 171.914062 444.183594 171.914062 C 444.589844 171.914062 444.914062 172.246094 444.914062 172.648438 L 444.914062 365.855469 C 444.914062 366.261719 444.589844 366.589844 444.1875 366.589844" fill="#f4f4f4"/></g><g id="change1_43"><path d="M 435.414062 363.34375 C 435.007812 363.34375 434.679688 363.019531 434.679688 362.613281 L 434.675781 182.371094 C 434.675781 181.96875 435.007812 181.640625 435.410156 181.640625 C 435.816406 181.640625 436.144531 181.96875 436.144531 182.371094 L 436.144531 362.613281 C 436.144531 363.019531 435.816406 363.34375 435.414062 363.34375" fill="#f4f4f4"/></g><g id="change1_44"><path d="M 427.648438 360.476562 C 427.242188 360.476562 426.914062 360.148438 426.914062 359.746094 L 426.679688 191.238281 C 426.679688 190.839844 427.007812 190.507812 427.414062 190.507812 C 427.816406 190.507812 428.144531 190.835938 428.144531 191.238281 L 428.378906 359.742188 C 428.382812 360.148438 428.050781 360.476562 427.648438 360.476562" fill="#f4f4f4"/></g><g id="change1_45"><path d="M 599.265625 385.488281 C 599.097656 385.472656 420.554688 343.488281 420.554688 343.488281 C 420.164062 343.394531 419.917969 343 420.011719 342.605469 C 420.101562 342.210938 420.492188 341.980469 420.894531 342.0625 L 599.433594 384.039062 C 599.828125 384.136719 600.070312 384.527344 599.980469 384.925781 C 599.902344 385.261719 599.597656 385.488281 599.265625 385.488281" fill="#f4f4f4"/></g><g id="change1_46"><path d="M 599.265625 347.085938 C 599.191406 347.085938 420.652344 329.09375 420.652344 329.09375 C 420.25 329.050781 419.953125 328.691406 419.996094 328.285156 C 420.039062 327.886719 420.398438 327.59375 420.800781 327.628906 L 599.339844 345.621094 C 599.742188 345.664062 600.03125 346.023438 599.996094 346.425781 C 599.957031 346.804688 599.640625 347.085938 599.265625 347.085938" fill="#f4f4f4"/></g><g id="change1_47"><path d="M 420.726562 314.683594 C 420.328125 314.683594 420.003906 314.371094 419.992188 313.976562 C 419.976562 313.570312 420.296875 313.230469 420.703125 313.21875 L 599.242188 307.222656 C 599.621094 307.242188 599.984375 307.523438 600 307.929688 C 600.015625 308.335938 599.695312 308.671875 599.289062 308.6875 L 420.75 314.683594 C 420.742188 314.683594 420.734375 314.683594 420.726562 314.683594" fill="#f4f4f4"/></g><g id="change1_48"><path d="M 420.726562 300.273438 C 420.375 300.273438 420.0625 300.019531 420 299.660156 C 419.933594 299.261719 420.203125 298.882812 420.605469 298.816406 L 599.144531 268.828125 C 599.554688 268.753906 599.921875 269.035156 599.984375 269.429688 C 600.054688 269.828125 599.789062 270.207031 599.386719 270.273438 L 420.847656 300.261719 C 420.804688 300.269531 420.761719 300.273438 420.726562 300.273438" fill="#f4f4f4"/></g><g id="change1_49"><path d="M 420.726562 285.859375 C 420.410156 285.859375 420.117188 285.65625 420.023438 285.339844 C 419.90625 284.949219 420.125 284.539062 420.511719 284.425781 L 599.050781 230.449219 C 599.449219 230.316406 599.851562 230.546875 599.96875 230.9375 C 600.085938 231.324219 599.863281 231.734375 599.476562 231.851562 L 420.941406 285.828125 C 420.867188 285.851562 420.796875 285.859375 420.726562 285.859375" fill="#f4f4f4"/></g><g id="change1_50"><path d="M 420.726562 271.449219 C 420.441406 271.449219 420.171875 271.285156 420.050781 271.007812 C 419.886719 270.636719 420.0625 270.207031 420.429688 270.042969 L 598.972656 192.078125 C 599.335938 191.914062 599.777344 192.085938 599.9375 192.457031 C 600.097656 192.828125 599.929688 193.257812 599.554688 193.421875 L 421.019531 271.386719 C 420.921875 271.429688 420.824219 271.449219 420.726562 271.449219" fill="#f4f4f4"/></g><g id="change1_51"><path d="M 420.726562 257.035156 C 420.472656 257.035156 420.226562 256.90625 420.089844 256.667969 C 419.886719 256.316406 420.011719 255.867188 420.359375 255.667969 L 598.902344 153.710938 C 599.246094 153.507812 599.699219 153.628906 599.902344 153.980469 C 600.101562 154.335938 599.980469 154.78125 599.628906 154.980469 L 421.089844 256.941406 C 420.972656 257.003906 420.851562 257.035156 420.726562 257.035156" fill="#f4f4f4"/></g><g id="change1_52"><path d="M 420.726562 242.621094 C 420.496094 242.621094 420.265625 242.519531 420.125 242.316406 C 419.894531 241.980469 419.972656 241.523438 420.300781 241.289062 L 598.839844 115.34375 C 599.171875 115.113281 599.625 115.1875 599.863281 115.519531 C 600.097656 115.855469 600.019531 116.3125 599.691406 116.546875 L 421.148438 242.488281 C 421.019531 242.582031 420.871094 242.621094 420.726562 242.621094" fill="#f4f4f4"/></g><g id="change1_53"><path d="M 420.726562 228.210938 C 420.515625 228.210938 420.308594 228.125 420.164062 227.949219 C 419.902344 227.640625 419.945312 227.179688 420.253906 226.917969 L 598.792969 76.984375 C 599.101562 76.722656 599.570312 76.757812 599.828125 77.074219 C 600.089844 77.382812 600.046875 77.84375 599.738281 78.105469 L 421.199219 228.039062 C 421.058594 228.15625 420.894531 228.210938 420.726562 228.210938" fill="#f4f4f4"/></g><g id="change1_54"><path d="M 420.726562 213.800781 C 420.535156 213.800781 420.347656 213.726562 420.195312 213.578125 C 419.917969 213.289062 419.921875 212.824219 420.214844 212.542969 L 598.75 38.613281 C 599.046875 38.332031 599.503906 38.339844 599.789062 38.628906 C 600.074219 38.921875 600.070312 39.386719 599.777344 39.667969 L 421.234375 213.59375 C 421.09375 213.734375 420.90625 213.800781 420.726562 213.800781" fill="#f4f4f4"/></g><g id="change1_55"><path d="M 180.011719 356.453125 L 419.992188 356.453125 L 419.992188 199.390625 L 180.011719 199.390625 Z M 420.726562 357.917969 L 179.277344 357.917969 C 178.875 357.917969 178.546875 357.59375 178.546875 357.1875 L 178.546875 198.65625 C 178.546875 198.25 178.875 197.925781 179.277344 197.925781 L 420.726562 197.925781 C 421.132812 197.925781 421.457031 198.25 421.457031 198.65625 L 421.457031 357.1875 C 421.457031 357.59375 421.132812 357.917969 420.726562 357.917969" fill="#f4f4f4"/></g><g id="change1_56"><path d="M 420.726562 343.507812 L 179.277344 343.507812 C 178.875 343.507812 178.546875 343.179688 178.546875 342.773438 C 178.546875 342.367188 178.875 342.039062 179.277344 342.039062 L 420.726562 342.039062 C 421.132812 342.039062 421.457031 342.367188 421.457031 342.773438 C 421.457031 343.179688 421.132812 343.507812 420.726562 343.507812" fill="#f4f4f4"/></g><g id="change1_57"><path d="M 420.726562 329.09375 L 179.277344 329.09375 C 178.875 329.09375 178.546875 328.765625 178.546875 328.359375 C 178.546875 327.957031 178.875 327.628906 179.277344 327.628906 L 420.726562 327.628906 C 421.132812 327.628906 421.457031 327.957031 421.457031 328.359375 C 421.457031 328.765625 421.132812 329.09375 420.726562 329.09375" fill="#f4f4f4"/></g><g id="change1_58"><path d="M 420.726562 314.683594 L 179.277344 314.683594 C 178.875 314.683594 178.546875 314.355469 178.546875 313.949219 C 178.546875 313.546875 178.875 313.21875 179.277344 313.21875 L 420.726562 313.21875 C 421.132812 313.21875 421.457031 313.546875 421.457031 313.949219 C 421.457031 314.355469 421.132812 314.683594 420.726562 314.683594" fill="#f4f4f4"/></g><g id="change1_59"><path d="M 420.726562 300.273438 L 179.277344 300.273438 C 178.875 300.273438 178.546875 299.941406 178.546875 299.539062 C 178.546875 299.132812 178.875 298.804688 179.277344 298.804688 L 420.726562 298.804688 C 421.132812 298.804688 421.457031 299.132812 421.457031 299.539062 C 421.457031 299.941406 421.132812 300.273438 420.726562 300.273438" fill="#f4f4f4"/></g><g id="change1_60"><path d="M 420.726562 285.859375 L 179.277344 285.859375 C 178.875 285.859375 178.546875 285.53125 178.546875 285.128906 C 178.546875 284.722656 178.875 284.394531 179.277344 284.394531 L 420.726562 284.394531 C 421.132812 284.394531 421.457031 284.722656 421.457031 285.128906 C 421.457031 285.53125 421.132812 285.859375 420.726562 285.859375" fill="#f4f4f4"/></g><g id="change1_61"><path d="M 420.726562 271.449219 L 179.277344 271.449219 C 178.875 271.449219 178.546875 271.121094 178.546875 270.714844 C 178.546875 270.3125 178.875 269.984375 179.277344 269.984375 L 420.726562 269.984375 C 421.132812 269.984375 421.457031 270.3125 421.457031 270.714844 C 421.457031 271.121094 421.132812 271.449219 420.726562 271.449219" fill="#f4f4f4"/></g><g id="change1_62"><path d="M 420.726562 257.035156 L 179.277344 257.035156 C 178.875 257.035156 178.546875 256.707031 178.546875 256.304688 C 178.546875 255.898438 178.875 255.570312 179.277344 255.570312 L 420.726562 255.570312 C 421.132812 255.570312 421.457031 255.898438 421.457031 256.304688 C 421.457031 256.707031 421.132812 257.035156 420.726562 257.035156" fill="#f4f4f4"/></g><g id="change1_63"><path d="M 420.726562 242.621094 L 179.277344 242.621094 C 178.875 242.621094 178.546875 242.296875 178.546875 241.890625 C 178.546875 241.488281 178.875 241.160156 179.277344 241.160156 L 420.726562 241.160156 C 421.132812 241.160156 421.457031 241.488281 421.457031 241.890625 C 421.457031 242.296875 421.132812 242.621094 420.726562 242.621094" fill="#f4f4f4"/></g><g id="change1_64"><path d="M 420.726562 228.210938 L 179.277344 228.210938 C 178.875 228.210938 178.546875 227.882812 178.546875 227.480469 C 178.546875 227.070312 178.875 226.746094 179.277344 226.746094 L 420.726562 226.746094 C 421.132812 226.746094 421.457031 227.070312 421.457031 227.480469 C 421.457031 227.882812 421.132812 228.210938 420.726562 228.210938" fill="#f4f4f4"/></g><g id="change1_65"><path d="M 420.726562 213.800781 L 179.277344 213.800781 C 178.875 213.800781 178.546875 213.472656 178.546875 213.066406 C 178.546875 212.664062 178.875 212.335938 179.277344 212.335938 L 420.726562 212.335938 C 421.132812 212.335938 421.457031 212.664062 421.457031 213.066406 C 421.457031 213.472656 421.132812 213.800781 420.726562 213.800781" fill="#f4f4f4"/></g><g id="change1_66"><path d="M 398.773438 357.917969 C 398.367188 357.917969 398.039062 357.59375 398.039062 357.1875 L 398.039062 198.65625 C 398.039062 198.25 398.367188 197.925781 398.773438 197.925781 C 399.179688 197.925781 399.507812 198.25 399.507812 198.65625 L 399.507812 357.1875 C 399.507812 357.59375 399.179688 357.917969 398.773438 357.917969" fill="#f4f4f4"/></g><g id="change1_67"><path d="M 376.824219 357.917969 C 376.421875 357.917969 376.09375 357.59375 376.09375 357.1875 L 376.09375 198.65625 C 376.09375 198.25 376.421875 197.925781 376.824219 197.925781 C 377.230469 197.925781 377.558594 198.25 377.558594 198.65625 L 377.558594 357.1875 C 377.558594 357.59375 377.230469 357.917969 376.824219 357.917969" fill="#f4f4f4"/></g><g id="change1_68"><path d="M 354.875 357.917969 C 354.46875 357.917969 354.140625 357.59375 354.140625 357.1875 L 354.140625 198.65625 C 354.140625 198.25 354.46875 197.925781 354.875 197.925781 C 355.28125 197.925781 355.609375 198.25 355.609375 198.65625 L 355.609375 357.1875 C 355.609375 357.59375 355.28125 357.917969 354.875 357.917969" fill="#f4f4f4"/></g><g id="change1_69"><path d="M 332.925781 357.917969 C 332.523438 357.917969 332.195312 357.59375 332.195312 357.1875 L 332.195312 198.65625 C 332.195312 198.25 332.523438 197.925781 332.925781 197.925781 C 333.332031 197.925781 333.660156 198.25 333.660156 198.65625 L 333.660156 357.1875 C 333.660156 357.59375 333.332031 357.917969 332.925781 357.917969" fill="#f4f4f4"/></g><g id="change1_70"><path d="M 310.972656 357.917969 C 310.570312 357.917969 310.246094 357.59375 310.246094 357.1875 L 310.246094 198.65625 C 310.246094 198.25 310.570312 197.925781 310.972656 197.925781 C 311.378906 197.925781 311.707031 198.25 311.707031 198.65625 L 311.707031 357.1875 C 311.707031 357.59375 311.378906 357.917969 310.972656 357.917969" fill="#f4f4f4"/></g><g id="change1_71"><path d="M 289.027344 357.917969 C 288.621094 357.917969 288.292969 357.59375 288.292969 357.1875 L 288.292969 198.65625 C 288.292969 198.25 288.621094 197.925781 289.027344 197.925781 C 289.429688 197.925781 289.761719 198.25 289.761719 198.65625 L 289.761719 357.1875 C 289.761719 357.59375 289.429688 357.917969 289.027344 357.917969" fill="#f4f4f4"/></g><g id="change1_72"><path d="M 267.074219 357.917969 C 266.667969 357.917969 266.34375 357.59375 266.34375 357.1875 L 266.34375 198.65625 C 266.34375 198.25 266.667969 197.925781 267.074219 197.925781 C 267.484375 197.925781 267.808594 198.25 267.808594 198.65625 L 267.808594 357.1875 C 267.808594 357.59375 267.484375 357.917969 267.074219 357.917969" fill="#f4f4f4"/></g><g id="change1_73"><path d="M 245.128906 357.917969 C 244.722656 357.917969 244.394531 357.59375 244.394531 357.1875 L 244.394531 198.65625 C 244.394531 198.25 244.722656 197.925781 245.128906 197.925781 C 245.53125 197.925781 245.863281 198.25 245.863281 198.65625 L 245.863281 357.1875 C 245.863281 357.59375 245.53125 357.917969 245.128906 357.917969" fill="#f4f4f4"/></g><g id="change1_74"><path d="M 223.179688 357.917969 C 222.773438 357.917969 222.445312 357.59375 222.445312 357.1875 L 222.445312 198.65625 C 222.445312 198.25 222.773438 197.925781 223.179688 197.925781 C 223.585938 197.925781 223.914062 198.25 223.914062 198.65625 L 223.914062 357.1875 C 223.914062 357.59375 223.585938 357.917969 223.179688 357.917969" fill="#f4f4f4"/></g><g id="change1_75"><path d="M 201.226562 357.917969 C 200.824219 357.917969 200.492188 357.59375 200.492188 357.1875 L 200.492188 198.65625 C 200.492188 198.25 200.824219 197.925781 201.226562 197.925781 C 201.632812 197.925781 201.960938 198.25 201.960938 198.65625 L 201.960938 357.1875 C 201.960938 357.59375 201.632812 357.917969 201.226562 357.917969" fill="#f4f4f4"/></g><g clip-path="url(#m)" id="change1_105"><path d="M 1.46875 2.648438 L 1.46875 422.105469 L 178.542969 356.675781 L 178.542969 198.9375 Z M 0.734375 423.890625 C 0.589844 423.890625 0.441406 423.847656 0.320312 423.757812 C 0.121094 423.621094 0 423.398438 0 423.15625 L 0 0.738281 C 0 0.433594 0.1875 0.164062 0.472656 0.0546875 C 0.753906 -0.0585938 1.074219 0.0234375 1.28125 0.25 L 179.824219 198.164062 C 179.945312 198.300781 180.011719 198.476562 180.011719 198.65625 L 180.011719 357.1875 C 180.011719 357.492188 179.816406 357.769531 179.53125 357.871094 L 0.992188 423.84375 C 0.90625 423.875 0.824219 423.890625 0.734375 423.890625" fill="#f4f4f4"/></g><g id="change1_76"><path d="M 36.203125 410.785156 C 35.796875 410.785156 35.46875 410.457031 35.46875 410.054688 L 35.472656 40.058594 C 35.472656 39.652344 35.800781 39.324219 36.203125 39.324219 C 36.609375 39.324219 36.9375 39.652344 36.9375 40.058594 L 36.9375 410.054688 C 36.9375 410.457031 36.609375 410.785156 36.203125 410.785156" fill="#f4f4f4"/></g><g id="change1_77"><path d="M 64.152344 400.460938 C 63.75 400.460938 63.417969 400.132812 63.417969 399.726562 L 63.421875 71.042969 C 63.421875 70.632812 63.75 70.308594 64.15625 70.308594 C 64.558594 70.308594 64.890625 70.632812 64.890625 71.042969 L 64.886719 399.726562 C 64.886719 400.132812 64.558594 400.460938 64.152344 400.460938" fill="#f4f4f4"/></g><g id="change1_78"><path d="M 86.75 392.109375 C 86.335938 392.105469 86.011719 391.773438 86.015625 391.367188 L 89.238281 99.652344 C 89.242188 99.25 89.574219 98.925781 89.96875 98.925781 C 90.386719 98.929688 90.710938 99.261719 90.703125 99.667969 L 87.484375 391.382812 C 87.476562 391.785156 87.152344 392.109375 86.75 392.109375" fill="#f4f4f4"/></g><g id="change1_79"><path d="M 105.394531 385.21875 C 104.988281 385.21875 104.660156 384.890625 104.660156 384.484375 L 104.660156 116.753906 C 104.660156 116.347656 104.988281 116.023438 105.394531 116.023438 C 105.800781 116.023438 106.128906 116.347656 106.128906 116.753906 L 106.128906 384.484375 C 106.128906 384.890625 105.800781 385.21875 105.394531 385.21875" fill="#f4f4f4"/></g><g id="change1_80"><path d="M 121.039062 379.4375 C 120.636719 379.4375 120.304688 379.109375 120.304688 378.707031 L 120.308594 134.101562 C 120.308594 133.695312 120.636719 133.367188 121.042969 133.367188 C 121.445312 133.367188 121.773438 133.695312 121.773438 134.101562 L 121.773438 378.707031 C 121.773438 379.109375 121.445312 379.4375 121.039062 379.4375" fill="#f4f4f4"/></g><g id="change1_81"><path d="M 134.359375 374.515625 C 133.953125 374.515625 133.625 374.191406 133.625 373.785156 L 133.625 148.863281 C 133.625 148.457031 133.953125 148.128906 134.359375 148.128906 C 134.765625 148.128906 135.09375 148.457031 135.09375 148.863281 L 135.09375 373.785156 C 135.09375 374.191406 134.761719 374.515625 134.359375 374.515625" fill="#f4f4f4"/></g><g id="change1_82"><path d="M 145.832031 370.277344 C 145.425781 370.277344 145.097656 369.949219 145.097656 369.546875 L 145.097656 161.582031 C 145.097656 161.175781 145.425781 160.847656 145.832031 160.847656 C 146.238281 160.847656 146.566406 161.175781 146.566406 161.582031 L 146.566406 369.546875 C 146.566406 369.949219 146.234375 370.277344 145.832031 370.277344" fill="#f4f4f4"/></g><g id="change1_83"><path d="M 155.820312 366.589844 C 155.414062 366.589844 155.085938 366.261719 155.085938 365.855469 L 155.085938 172.648438 C 155.085938 172.246094 155.414062 171.914062 155.820312 171.914062 C 156.226562 171.914062 156.554688 172.246094 156.554688 172.648438 L 156.554688 365.855469 C 156.554688 366.261719 156.222656 366.589844 155.820312 366.589844" fill="#f4f4f4"/></g><g id="change1_84"><path d="M 164.589844 363.34375 C 164.183594 363.34375 163.855469 363.019531 163.855469 362.613281 L 163.855469 182.371094 C 163.855469 181.96875 164.183594 181.640625 164.589844 181.640625 C 164.992188 181.640625 165.324219 181.96875 165.324219 182.371094 L 165.324219 362.613281 C 165.324219 363.019531 164.992188 363.34375 164.589844 363.34375" fill="#f4f4f4"/></g><g id="change1_85"><path d="M 172.355469 360.476562 C 171.949219 360.476562 171.621094 360.148438 171.621094 359.746094 L 171.851562 191.238281 C 171.855469 190.835938 172.183594 190.507812 172.585938 190.507812 C 172.992188 190.507812 173.320312 190.839844 173.320312 191.238281 L 173.089844 359.746094 C 173.085938 360.148438 172.757812 360.476562 172.355469 360.476562" fill="#f4f4f4"/></g><g id="change1_86"><path d="M 0.734375 385.488281 C 0.402344 385.488281 0.105469 385.261719 0.0234375 384.925781 C -0.0703125 384.527344 0.175781 384.136719 0.566406 384.039062 L 179.109375 342.0625 C 179.5 341.972656 179.898438 342.210938 179.992188 342.605469 C 180.085938 343 179.839844 343.394531 179.445312 343.488281 L 0.902344 385.472656 C 0.847656 385.484375 0.792969 385.488281 0.734375 385.488281" fill="#f4f4f4"/></g><g id="change1_87"><path d="M 0.734375 347.085938 C 0.367188 347.085938 0.0429688 346.804688 0.00390625 346.425781 C -0.03125 346.023438 0.257812 345.664062 0.664062 345.621094 L 179.207031 327.628906 C 179.617188 327.59375 179.96875 327.882812 180.003906 328.285156 C 180.046875 328.691406 179.753906 329.050781 179.351562 329.09375 L 0.808594 347.085938 C 0.785156 347.085938 0.757812 347.085938 0.734375 347.085938" fill="#f4f4f4"/></g><g id="change1_88"><path d="M 179.277344 314.683594 C 179.253906 314.683594 0.710938 308.6875 0.710938 308.6875 C 0.304688 308.671875 -0.0117188 308.335938 0 307.929688 C 0.015625 307.523438 0.355469 307.195312 0.757812 307.222656 L 179.300781 313.21875 C 179.707031 313.230469 180.023438 313.570312 180.011719 313.976562 C 179.996094 314.371094 179.671875 314.683594 179.277344 314.683594" fill="#f4f4f4"/></g><g id="change1_89"><path d="M 179.277344 300.273438 C 179.152344 300.261719 0.613281 270.273438 0.613281 270.273438 C 0.214844 270.207031 -0.0546875 269.828125 0.015625 269.429688 C 0.0820312 269.03125 0.464844 268.742188 0.855469 268.828125 L 179.398438 298.816406 C 179.800781 298.882812 180.066406 299.261719 180 299.660156 C 179.941406 300.019531 179.632812 300.273438 179.277344 300.273438" fill="#f4f4f4"/></g><g id="change1_90"><path d="M 179.277344 285.859375 C 179.066406 285.828125 0.523438 231.851562 0.523438 231.851562 C 0.136719 231.734375 -0.0820312 231.324219 0.0351562 230.9375 C 0.152344 230.550781 0.558594 230.324219 0.949219 230.449219 L 179.492188 284.425781 C 179.878906 284.539062 180.097656 284.949219 179.980469 285.339844 C 179.882812 285.65625 179.59375 285.859375 179.277344 285.859375" fill="#f4f4f4"/></g><g id="change1_91"><path d="M 179.277344 271.449219 C 179.175781 271.449219 179.078125 271.429688 178.980469 271.386719 L 0.441406 193.421875 C 0.0703125 193.257812 -0.0976562 192.828125 0.0625 192.457031 C 0.226562 192.085938 0.660156 191.914062 1.03125 192.078125 L 179.570312 270.042969 C 179.945312 270.207031 180.113281 270.636719 179.949219 271.007812 C 179.828125 271.285156 179.5625 271.449219 179.277344 271.449219" fill="#f4f4f4"/></g><g id="change1_92"><path d="M 179.277344 257.035156 C 179.152344 257.035156 179.027344 257.003906 178.914062 256.941406 L 0.371094 154.980469 C 0.0195312 154.78125 -0.101562 154.335938 0.0976562 153.980469 C 0.300781 153.632812 0.746094 153.507812 1.101562 153.710938 L 179.640625 255.667969 C 179.992188 255.867188 180.117188 256.316406 179.910156 256.667969 C 179.78125 256.90625 179.53125 257.035156 179.277344 257.035156" fill="#f4f4f4"/></g><g id="change1_93"><path d="M 179.277344 242.621094 C 179.132812 242.621094 178.980469 242.582031 178.855469 242.488281 L 0.316406 116.546875 C -0.0195312 116.3125 -0.0976562 115.855469 0.136719 115.519531 C 0.371094 115.191406 0.828125 115.113281 1.160156 115.34375 L 179.703125 241.289062 C 180.03125 241.523438 180.109375 241.980469 179.878906 242.316406 C 179.734375 242.519531 179.503906 242.621094 179.277344 242.621094" fill="#f4f4f4"/></g><g id="change1_94"><path d="M 179.277344 228.210938 C 179.113281 228.210938 178.945312 228.15625 178.804688 228.039062 L 0.261719 78.105469 C -0.046875 77.84375 -0.0859375 77.382812 0.175781 77.074219 C 0.4375 76.757812 0.898438 76.722656 1.207031 76.984375 L 179.75 226.917969 C 180.058594 227.179688 180.097656 227.640625 179.839844 227.949219 C 179.691406 228.125 179.488281 228.210938 179.277344 228.210938" fill="#f4f4f4"/></g><g id="change1_95"><path d="M 179.277344 213.800781 C 179.09375 213.800781 178.90625 213.734375 178.765625 213.59375 L 0.226562 39.667969 C -0.0703125 39.386719 -0.0742188 38.921875 0.210938 38.628906 C 0.492188 38.339844 0.953125 38.332031 1.25 38.613281 L 179.789062 212.542969 C 180.078125 212.824219 180.085938 213.289062 179.804688 213.578125 C 179.660156 213.726562 179.46875 213.800781 179.277344 213.800781" fill="#f4f4f4"/></g></g></svg>