<?xml version="1.0" encoding="UTF-8" standalone="no"?><svg xmlns="http://www.w3.org/2000/svg" xmlns:xlink="http://www.w3.org/1999/xlink" data-name="Layer 1" fill="#000000" height="1687" preserveAspectRatio="xMidYMid meet" version="1" viewBox="0.0 656.5 3000.0 1687.0" width="3000" zoomAndPan="magnify"><g id="change1_1"><path d="M2937.91 1109.66L2937.91 792.38 1705.83 792.38 1674.89 761.43 1638.57 726.46 1036.55 723.09 208.52 723.09 1.68 929.93 1.68 1202.69 55.33 1256.33 55.33 2196.86 94.25 2235.79 718.47 2235.79 718.39 2235.87 657.85 2289.69 1278.03 2292.37 1277.35 2293.05 1950.67 2293.05 2117.15 2126.57 2868.16 2126.57 2931.89 2062.84 2931.89 1778.48 2878.5 1725.08 2878.5 1169.06 2937.91 1109.66z"/></g><g id="change2_1"><path d="M1661.43 704.93L1730.04 768.16 2929.37 768.16 2929.37 694.84 2893.72 659.19 2749.1 659.19 2695.63 712.67 2275.56 712.67 2225.11 656.5 2063.68 656.5 2017.01 704.01 1661.43 704.93z" fill="#a286de"/></g><g id="change2_2"><path d="M0 1233.63L0 1705.83 35.65 1741.48 35.65 1271.3 0 1233.63z" fill="#a286de"/></g><g id="change2_3"><path d="M2937.91,1109.66v-317.28H1705.83l-30.94-30.94-36.32-34.98-602.02-3.36H208.52L1.68,929.93v272.76l53.64,53.64v940.53l38.93,38.93H718.47l-.09,.08-60.54,53.81,620.19,2.68-.68,.68h673.32l166.48-166.48h751.01l63.73-63.73v-284.36l-53.39-53.39v-556.03l59.4-59.4Zm-96.65,900.21l-75.34,75.34h-656.5l-114.35,114.35h-624.22l-611.48-3.41H460.76l-24.19-24.19H141.93l-46.4-46.4v-970.62l-51.46-51.46v-148.99l186.15-186.15H1021.75l50.7,50.7,6.27-.42h409.85l1352.69,7.4V2009.87Z" fill="#a286de"/></g><g id="change2_4"><path d="M2940.13 1543.05L2897.09 1543.05 2897.09 1182.34 2956.95 1122.47 2956.95 889.24 3000 889.24 3000 1140.31 2940.13 1200.17 2940.13 1543.05z" fill="#a286de"/></g><g id="change2_5"><path d="M359.19 667.26H1010.31V679.37H359.19z" fill="#a286de"/></g><g id="change2_6"><path d="M2832.51 2175.34L2114.13 2175.34 2135.65 2152.47 2854.04 2152.47 2832.51 2175.34z" fill="#a286de"/></g><g id="change2_7"><path d="M2204.93 2065.02L2165.92 2065.02 2261.43 1960.09 2300.45 1960.09 2204.93 2065.02z" fill="#a286de"/></g><g id="change2_8"><path d="M2305.83 2065.02L2266.82 2065.02 2362.33 1960.09 2401.35 1960.09 2305.83 2065.02z" fill="#a286de"/></g><g id="change2_9"><path d="M2406.73 2065.02L2367.71 2065.02 2463.23 1960.09 2502.24 1960.09 2406.73 2065.02z" fill="#a286de"/></g><g id="change2_10"><path d="M2507.62 2065.02L2468.61 2065.02 2564.13 1960.09 2603.14 1960.09 2507.62 2065.02z" fill="#a286de"/></g><g id="change2_11"><path d="M2608.52 2065.02L2569.51 2065.02 2665.02 1960.09 2704.04 1960.09 2608.52 2065.02z" fill="#a286de"/></g><g id="change2_12"><path d="M2709.42 2065.02L2670.4 2065.02 2765.92 1960.09 2804.93 1960.09 2709.42 2065.02z" fill="#a286de"/></g><g fill="#a286de" id="change2_14"><path d="M2246.64 657.85L2475.34 658.48 2475.34 699.55 2284.3 699.55 2246.64 657.85z"/><path d="M2730.94 659.19L2687.89 699.55 2490.13 699.55 2490.13 658.52 2730.94 659.19z"/></g><g id="change2_13"><path d="M1978.61 2343.5L1427.35 2343.5 1427.35 2312.56 1965.79 2312.56 2036.59 2241.75 2058.47 2263.63 1978.61 2343.5z" fill="#a286de"/></g></svg>