<?xml version="1.0" encoding="UTF-8" standalone="no"?><svg xmlns="http://www.w3.org/2000/svg" xmlns:xlink="http://www.w3.org/1999/xlink" fill="#000000" height="1200" preserveAspectRatio="xMidYMid meet" version="1" viewBox="0.0 0.0 1200.0 1200.0" width="1200" zoomAndPan="magnify"><g id="change1_1"><path d="M 716.429688 0 L 479.296875 0 L 597.863281 1013.671875 Z M 716.429688 0" fill="#545454"/><path d="M 280.964844 0 L 0 0 L 0 7.601562 L 597.863281 1015.660156 L 280.964844 0" fill="#545454"/><path d="M 0 333.828125 L 0 589.917969 L 597.863281 1013.671875 Z M 0 333.828125" fill="#545454"/><path d="M 0 741.03125 L 0 895.882812 L 597.863281 1015.660156 Z M 0 741.03125" fill="#545454"/><path d="M 0 1008.011719 L 0 1150.449219 L 602.136719 1015.070312 Z M 0 1008.011719" fill="#545454"/><path d="M 166.121094 1200 L 347.804688 1200 L 597.859375 1013.808594 Z M 166.121094 1200" fill="#545454"/><path d="M 427.039062 1200 L 493.75 1200 L 597.863281 1014.691406 Z M 427.039062 1200" fill="#545454"/><path d="M 534.375 1200 L 580.339844 1200 L 597.863281 1012.128906 Z M 534.375 1200" fill="#545454"/><path d="M 615.054688 1200 L 660.15625 1200 L 597.859375 1015.660156 Z M 615.054688 1200" fill="#545454"/><path d="M 597.863281 1013.808594 L 702.46875 1200 L 769.503906 1200 Z M 597.863281 1013.808594" fill="#545454"/><path d="M 597.863281 1013.808594 L 847.917969 1200 L 1029.601562 1200 Z M 597.863281 1013.808594" fill="#545454"/><path d="M 597.863281 1015.070312 L 1200 1150.449219 L 1200 1008.011719 Z M 597.863281 1015.070312" fill="#545454"/><path d="M 1200 895.023438 L 1200 739.066406 L 597.863281 1015.660156 Z M 1200 895.023438" fill="#545454"/><path d="M 1200 587.785156 L 1200 329.863281 L 597.863281 1014.570312 Z M 1200 587.785156" fill="#545454"/><path d="M 1200 0.390625 L 1200 0 L 914.757812 0 L 597.863281 1015.660156 L 1200 0.390625" fill="#545454"/></g></svg>