<?xml version="1.0" encoding="UTF-8"?><svg xmlns="http://www.w3.org/2000/svg" xmlns:xlink="http://www.w3.org/1999/xlink" height="1016.7" preserveAspectRatio="xMidYMid meet" version="1.0" viewBox="0.0 659.3 2880.0 1016.7" width="2880.0" zoomAndPan="magnify"><g><defs><g id="change1_1"><path d="M0 0H2880V1800H0z" id="a"/></g></defs><clipPath id="b"><use overflow="visible" xlink:actuate="onLoad" xlink:href="#a" xlink:show="embed" xlink:type="simple" xmlns:xlink="http://www.w3.org/1999/xlink"/></clipPath><g clip-path="url(#b)" fill="none" stroke="#ccc" stroke-miterlimit="10"><path d="M-195.67,1071.32c54.51,47.48,139.51,18.68,201.24-18.95c68.53-41.77,131.87-92.04,188.12-149.28 c56.36-57.35,106.17-122.16,171.43-169.15c65.25-46.99,152.18-74.08,226.84-44.2c90.47,36.2,131.17,138.37,171.54,227.05 c40.38,88.68,108.2,184.85,205.64,183.48c71.11-1,128.75-54.61,181.85-101.91c55.42-49.37,113.9-95.31,174.98-137.47 c52.32-36.11,118.02-70.65,176.54-45.8c54.43,23.11,78.31,88.25,127.28,121.4c58.89,39.86,140,24.03,202.4-10.07 c62.4-34.11,115.26-84.23,179.16-115.41c16.06-7.84,33.66-14.56,51.38-12.29c37.04,4.74,57.91,45.03,66.41,81.39 c8.51,36.36,12.59,76.97,39.32,103.04c46.42,45.26,125.92,15.54,173.58-28.43c47.65-43.96,88.6-102.5,151.7-117.42 c14.15-3.35,29.7-4.08,42.63,2.57c32.18,16.57,28.72,63.81,47.89,94.52c21.14,33.87,68.18,42.54,107.03,33.34 c38.85-9.2,72.79-32.08,108.78-49.36c77.96-37.43,168.26-48.58,252.99-31.24"/><path d="M-193.48,1065c53.76,46.71,136.86,20.07,197.63-15.12c67.47-39.07,129.39-87.07,185.87-140.67 c52.92-50.22,102.14-106.18,161.75-151.4c4.77-3.62,9.61-7.16,14.52-10.62c62.99-44.34,143.99-72.9,216.11-53.11 c3.81,1.05,7.6,2.23,11.36,3.55c73.08,25.66,116.12,93.03,152.42,164.93c8.84,17.44,17.18,35.13,25.44,52.43 c18.73,39.27,42.26,80.47,71.25,114.07c36.33,42.09,81.41,72.48,135.52,73.28c38.89,0.57,74.07-14.48,106.89-36.38 c26.73-17.81,51.63-40.24,75.45-61.6c3.65-3.28,7.32-6.54,10.99-9.79c49.8-44.1,101.5-85.89,155.7-124.39 c2.37-1.68,4.74-3.36,7.11-5.02c52.1-36.57,117.69-71.22,176.5-47.1c54.61,22.42,79.45,86.51,128.38,119.88 c56.83,38.77,133.56,27.68,195.31-2.78c2.19-1.08,4.37-2.19,6.52-3.32c62.73-32.92,115.76-83.11,179.64-114.53 c16.05-7.89,33.58-14.68,51.27-12.74c36.69,4.14,57.92,42.7,67.25,77.68c9.34,34.99,14.41,74.27,41.19,99.78 c13.65,13.02,30.03,19.85,47.55,21.96c42.06,5.11,90.72-16.82,124.2-45.82c27.9-24.08,53.63-53.19,82.93-76.36 c20.56-16.31,42.76-29.66,68.58-35.89c14.03-3.39,29.39-4.27,42.24,1.97c23.09,11.21,28.35,37.85,36.84,63.1 c3.29,9.77,7.05,19.33,12.48,27.68c21.44,33.03,67.61,42.29,106.06,34.01c38.31-8.36,71.95-30.15,107.6-46.75 c77.12-35.96,166.23-47.49,249.76-31.62"/><path d="M-191.28,1058.68c53.02,45.94,134.22,21.47,194.02-11.3c66.42-36.37,126.97-82.11,183.61-132.07 c53.72-47.38,105.51-99.77,166.33-144.38c4.87-3.57,9.79-7.08,14.78-10.51c64.01-44.05,144.47-74.5,216.71-57.93 c3.82,0.88,7.61,1.89,11.38,3.03c73.34,22.19,118.85,85.05,157.34,155.66c9.4,17.15,18.2,34.7,26.84,51.99 c19.57,39.23,43.33,80.84,72.44,114.94c36.41,42.6,81.47,73.9,135.47,76.27c38.56,1.69,73.8-11.85,106.92-32.97 c27.02-17.18,52.09-39.57,75.92-61.06c3.65-3.29,7.31-6.58,10.97-9.85c49.65-44.42,100.67-87,154.59-125.99 c2.35-1.7,4.72-3.4,7.08-5.09c51.88-37.02,117.35-71.79,176.46-48.41c54.8,21.74,80.59,84.77,129.48,118.37 c56.8,39.04,132.65,30.3,194.71,1.08c2.21-1.04,4.39-2.1,6.56-3.19c63.06-31.73,116.27-82,180.11-113.65 c16.03-7.95,33.52-14.85,51.16-13.19c36.36,3.42,57.93,40.36,68.09,73.97c10.17,33.61,16.24,71.57,43.06,96.53 c13.64,12.73,29.87,19.55,47.17,21.9c41.6,5.72,89.41-14.22,122.74-41.19c27.82-22.36,53.63-49.74,83.04-72.01 c20.58-15.67,42.7-28.77,68.29-35.07c13.9-3.42,29.09-4.46,41.86,1.38c22.96,10.47,28.82,35.84,37.81,60.2 c3.5,9.42,7.42,18.7,12.94,26.85c21.73,32.2,67.06,42.14,105.08,34.68c37.78-7.41,71.11-28.22,106.42-44.14 c76.29-34.49,164.2-46.39,246.54-31.99"/><path d="M-189.09,1052.36c52.28,45.17,131.57,22.86,190.4-7.48c65.36-33.66,124.62-77.15,181.35-123.46 c54.59-44.56,108.89-93.35,170.91-137.35c4.96-3.52,9.98-6.99,15.05-10.41c65.02-43.76,144.95-76.09,217.31-62.76 c3.82,0.71,7.62,1.54,11.41,2.51c73.61,18.71,121.58,77.07,162.26,146.4c9.96,16.85,19.22,34.27,28.24,51.55 c20.4,39.18,44.39,81.22,73.63,115.82c36.48,43.11,81.53,75.31,135.41,79.26c38.22,2.8,73.53-9.22,106.95-29.57 c27.31-16.55,52.55-38.89,76.39-60.52c3.65-3.31,7.3-6.62,10.94-9.91c49.49-44.74,99.83-88.1,153.47-127.6 c2.34-1.72,4.69-3.44,7.05-5.15c51.66-37.47,117.01-72.37,176.41-49.71c54.98,21.05,81.73,83.03,130.58,116.86 c56.77,39.32,131.74,32.93,194.11,4.93c2.22-0.99,4.41-2.02,6.59-3.06c63.39-30.53,116.77-80.89,180.59-112.77 c16.02-8,33.44-14.99,51.04-13.64c36.02,2.77,57.94,38.02,68.92,70.26c11,32.24,18.07,68.88,44.93,93.28 c13.62,12.43,29.72,19.25,46.8,21.84c41.13,6.32,88.04-11.7,121.28-36.56c27.69-20.71,53.63-46.29,83.15-67.66 c20.6-15.03,42.64-27.88,67.99-34.25c13.78-3.46,28.79-4.65,41.48,0.78c22.84,9.73,29.3,33.83,38.78,57.3 c3.7,9.08,7.79,18.07,13.4,26.01c22.02,31.37,66.49,41.94,104.11,35.35c37.24-6.53,70.28-26.29,105.23-41.54 c75.45-33.02,162.17-45.29,243.32-32.36"/><path d="M-186.9,1046.04c51.54,44.4,128.92,24.26,186.79-3.66c64.3-30.96,122.36-72.18,179.09-114.85 c55.54-41.77,112.26-86.93,175.49-130.33c5.06-3.47,10.16-6.91,15.32-10.3c66.04-43.47,145.43-77.69,217.91-67.59 c3.82,0.54,7.64,1.2,11.43,1.99C673,736.53,723.29,790.48,766.3,858.42c10.49,16.58,20.25,33.85,29.64,51.11 c21.24,39.14,45.46,81.59,74.82,116.69c36.55,43.62,81.59,76.72,135.36,82.26c37.88,3.9,73.26-6.6,106.98-26.16 c27.6-15.92,53.01-38.22,76.86-59.99c3.65-3.33,7.29-6.65,10.92-9.97c49.34-45.06,99-89.21,152.35-129.2 c2.33-1.75,4.67-3.49,7.02-5.22c51.44-37.93,116.68-72.94,176.37-51.01c55.17,20.37,82.87,81.28,131.69,115.35 c56.73,39.59,130.84,35.55,193.52,8.79c2.23-0.95,4.44-1.93,6.62-2.94c63.72-29.34,117.28-79.78,181.07-111.9 c16-8.05,33.37-15.14,50.93-14.09c35.67,2.12,57.94,35.68,69.76,66.54c11.83,30.86,19.9,66.18,46.79,90.03 c13.61,12.13,29.56,18.95,46.42,21.78c40.66,6.93,86.72-9.13,119.82-31.93c27.6-19.02,53.67-42.76,83.25-63.31 c20.65-14.34,42.58-26.99,67.7-33.43c13.65-3.5,28.48-4.84,41.1,0.18c22.72,8.99,29.72,31.84,39.75,54.4 c3.89,8.74,8.16,17.44,13.86,25.18c22.32,30.53,65.92,41.73,103.14,36.01c36.7-5.64,69.44-24.36,104.05-38.93 c74.61-31.55,160.14-44.19,240.1-32.74"/><path d="M-184.7,1039.72c50.8,43.62,126.27,25.65,183.18,0.16c63.25-28.26,120.18-67.19,176.83-106.24 c56.57-39,115.64-80.52,180.06-123.3c5.16-3.42,10.35-6.83,15.58-10.2c67.05-43.18,145.91-79.28,218.5-72.42 c3.83,0.37,7.65,0.85,11.46,1.47c74.14,11.76,126.87,61.23,172.09,127.87c11.05,16.29,21.27,33.42,31.03,50.68 c22.08,39.1,46.53,81.97,76.01,117.56c36.62,44.13,81.64,78.11,135.3,85.25c37.54,5,72.99-3.97,107.01-22.76 c27.89-15.29,53.47-37.54,77.33-59.45c3.64-3.34,7.28-6.69,10.9-10.03c49.19-45.38,98.16-90.31,151.24-130.81 c2.32-1.77,4.65-3.53,6.98-5.28c51.22-38.38,116.34-73.51,176.33-52.31c55.35,19.68,84.01,79.54,132.79,113.83 c56.7,39.87,129.93,38.17,192.92,12.64c2.24-0.91,4.46-1.84,6.66-2.81c64.05-28.15,117.79-78.67,181.54-111.02 c15.99-8.11,33.29-15.28,50.81-14.54c35.32,1.48,57.95,33.35,70.6,62.83c12.66,29.49,21.73,63.48,48.66,86.77 c13.6,11.83,29.41,18.66,46.05,21.72c40.19,7.53,85.4-6.56,118.36-27.3c27.52-17.32,53.68-39.29,83.36-58.95 c20.68-13.7,42.52-26.1,67.4-32.62c13.53-3.54,28.18-5.03,40.72-0.42c22.59,8.25,30.18,29.84,40.72,51.5 c4.09,8.4,8.55,16.8,14.32,24.35c22.67,29.65,65.35,41.52,102.16,36.68c36.15-4.76,68.6-22.43,102.87-36.32 c73.78-30.08,158.11-43.09,236.88-33.11"/><path d="M-182.51,1033.4c50.05,42.85,123.62,27.05,179.57,3.98c62.19-25.56,118.1-62.17,174.58-97.64 c57.69-36.23,119.01-74.1,184.64-116.28c5.25-3.38,10.53-6.74,15.85-10.09c68.06-42.89,146.4-80.87,219.1-77.25 c3.83,0.2,7.66,0.51,11.49,0.94c74.4,8.29,129.58,53.27,177.01,118.6c11.61,16,22.29,32.99,32.43,50.24 c22.91,39.06,47.6,82.34,77.19,118.43c36.69,44.64,81.68,79.49,135.25,88.24c37.19,6.08,72.71-1.34,107.04-19.36 c28.18-14.67,53.93-36.87,77.79-58.91c3.64-3.36,7.27-6.73,10.88-10.09c49.03-45.7,97.32-91.42,150.12-132.41 c2.31-1.79,4.62-3.57,6.95-5.34c51-38.83,116-74.08,176.29-53.61c55.54,18.99,85.16,77.8,133.89,112.32 c56.66,40.14,129.03,40.8,192.32,16.49c2.25-0.86,4.48-1.76,6.69-2.68c64.38-26.96,118.29-77.56,182.02-110.14 c15.97-8.16,33.22-15.41,50.7-14.99c34.97,0.84,57.96,31.01,71.43,59.12c13.49,28.11,23.56,60.79,50.53,83.52 c13.58,11.53,29.25,18.36,45.68,21.66c39.72,8.14,84.08-3.99,116.9-22.67c27.44-15.62,53.68-35.83,83.47-54.6 c20.7-13.05,42.46-25.22,67.11-31.8c13.41-3.58,27.87-5.22,40.33-1.02c22.47,7.51,30.64,27.84,41.68,48.6 c4.29,8.06,8.92,16.17,14.78,23.51c22.97,28.81,64.77,41.31,101.19,37.35c35.61-3.88,67.76-20.5,101.68-33.71 c72.94-28.62,156.07-41.99,233.65-33.48"/><path d="M-180.32,1027.08c49.31,42.08,120.97,28.44,175.96,7.8c61.14-22.86,116.12-57.1,172.32-89.03 c58.9-33.46,122.39-67.68,189.22-109.25c5.35-3.33,10.72-6.66,16.12-9.99c69.08-42.6,146.88-82.47,219.7-82.08 c3.84,0.03,7.68,0.17,11.51,0.42c74.67,4.82,132.29,45.32,181.92,109.34c12.17,15.7,23.31,32.56,33.83,49.8 c23.75,39.02,48.67,82.71,78.38,119.3c36.76,45.15,81.72,80.85,135.2,91.24c36.84,7.16,72.44,1.29,107.07-15.95 c28.47-14.04,54.39-36.19,78.26-58.38c3.64-3.38,7.26-6.77,10.85-10.15c48.88-46.02,96.49-92.52,149.01-134.02 c2.29-1.81,4.6-3.62,6.92-5.41c50.78-39.29,115.67-74.65,176.25-54.91c55.72,18.31,86.3,76.06,134.99,110.81 c56.63,40.42,128.12,43.42,191.72,20.35c2.26-0.82,4.5-1.67,6.72-2.56c64.71-25.77,118.8-76.45,182.5-109.26 c15.96-8.22,33.14-15.9,50.59-15.44c34.61,0.91,57.97,28.67,72.27,55.41c14.32,26.74,25.43,58.04,52.4,80.27 c13.59,11.21,29.11,18.03,45.3,21.6c39.27,8.66,82.77-1.41,115.44-18.04c27.36-13.93,53.69-32.36,83.58-50.25 c20.73-12.4,42.4-24.33,66.82-30.98c13.28-3.62,27.57-5.41,39.95-1.61c22.35,6.77,31.11,25.84,42.65,45.7 c4.49,7.72,9.3,15.53,15.24,22.68c23.27,27.96,64.2,41.1,100.21,38.02c35.06-3,66.92-18.58,100.5-31.1 c72.1-27.15,154.04-40.89,230.43-33.86"/><path d="M-178.12,1020.76c48.57,41.31,118.32,29.84,172.34,11.62c60.08-20.15,114.22-51.98,170.06-80.42 c60.2-30.66,125.76-61.27,193.79-102.23c5.45-3.28,10.91-6.58,16.38-9.88c70.09-42.31,147.36-84.06,220.3-86.91 c3.84-0.14,7.69-0.18,11.54-0.1c74.93,1.34,135.01,37.35,186.84,100.07c12.74,15.41,24.33,32.13,35.23,49.37 c24.58,38.97,49.74,83.09,79.57,120.17c36.83,45.66,81.77,82.21,135.14,94.23c36.5,8.22,72.14,3.84,107.1-12.55 c28.73-13.47,54.85-35.52,78.73-57.84c3.64-3.4,7.25-6.8,10.83-10.21c48.73-46.34,95.65-93.62,147.89-135.62 c2.28-1.83,4.58-3.66,6.88-5.47c50.56-39.74,115.33-75.22,176.21-56.21c55.91,17.62,87.44,74.31,136.1,109.29 c56.6,40.69,127.22,46.04,191.12,24.2c2.27-0.78,4.53-1.59,6.76-2.43c65.04-24.58,119.3-75.34,182.97-108.38 c15.95-8.27,33.06-15.68,50.47-15.89c34.27-0.42,57.98,26.33,73.11,51.69c15.15,25.36,27.26,55.33,54.26,77.01 c13.58,10.91,28.95,17.72,44.93,21.53c38.81,9.26,81.47,1.16,113.98-13.41c27.28-12.23,53.69-28.9,83.68-45.89 c20.75-11.76,42.34-23.44,66.52-30.16c13.16-3.66,27.26-5.6,39.57-2.21c22.22,6.03,31.57,23.84,43.62,42.8 c4.69,7.38,9.67,14.9,15.7,21.84c23.57,27.12,63.62,40.88,99.24,38.68c34.51-2.13,66.08-16.65,99.31-28.5 c71.26-25.68,152.01-39.79,227.21-34.23"/><path d="M-175.93,1014.45c47.83,40.53,115.67,31.23,168.73,15.44c59.02-17.45,112.42-46.79,167.8-71.81 c61.59-27.83,129.14-54.85,198.37-95.21c5.55-3.23,11.09-6.49,16.65-9.78c71.11-42.03,147.84-85.66,220.9-91.73 c3.85-0.31,7.71-0.52,11.56-0.62c75.19-2.13,137.73,29.39,191.76,90.81c13.3,15.12,25.35,31.71,36.63,48.93 c25.42,38.93,50.81,83.46,80.76,121.05c36.91,46.18,81.81,83.55,135.09,97.23c36.15,9.28,71.86,6.46,107.12-9.14 c29.02-12.85,55.31-34.84,79.2-57.3c3.63-3.41,7.24-6.84,10.81-10.27c48.57-46.66,94.82-94.73,146.77-137.23 c2.27-1.86,4.55-3.7,6.85-5.54c50.34-40.19,114.99-75.79,176.16-57.51c56.1,16.93,88.58,72.57,137.2,107.78 c56.56,40.97,126.31,48.67,190.52,28.06c2.28-0.73,4.55-1.5,6.79-2.3c65.37-23.38,119.81-74.22,183.45-107.5 c15.93-8.33,32.98-15.81,50.36-16.34c33.91-1.04,57.99,23.99,73.94,47.98c15.99,23.99,29.1,52.63,56.13,73.76 c13.57,10.61,28.8,17.42,44.55,21.47c38.34,9.86,80.16,3.74,112.52-8.78c27.21-10.53,53.69-25.44,83.79-41.54 c20.77-11.11,42.28-22.55,66.23-29.34c13.03-3.7,26.96-5.79,39.19-2.81c22.1,5.29,32.04,21.84,44.59,39.9 c4.9,7.04,10.05,14.27,16.17,21.01c23.87,26.28,63.04,40.66,98.26,39.35c33.95-1.26,65.24-14.72,98.13-25.89 c70.43-24.21,149.98-38.69,223.99-34.6"/><path d="M-173.74,1008.13c47.08,39.76,113.02,32.63,165.12,19.26c57.97-14.75,110.7-41.51,165.54-63.21 C220,939.23,289.44,915.75,359.88,876c5.64-3.18,11.28-6.41,16.92-9.67c72.12-41.74,148.32-87.25,221.5-96.56 c3.85-0.48,7.72-0.86,11.59-1.14c75.46-5.61,140.46,21.43,196.67,81.54c13.86,14.83,26.37,31.28,38.03,48.49 c26.25,38.89,51.87,83.84,81.95,121.92c36.98,46.69,81.85,84.88,135.03,100.22c35.8,10.32,71.59,9.09,107.15-5.74 c29.31-12.22,55.76-34.16,79.67-56.77c3.63-3.43,7.23-6.88,10.79-10.33c48.42-46.98,93.98-95.83,145.66-138.83 c2.26-1.88,4.53-3.75,6.82-5.6c50.12-40.65,114.66-76.36,176.12-58.81c56.28,16.25,89.72,70.83,138.3,106.27 c56.53,41.25,125.41,51.29,189.93,31.91c2.29-0.69,4.57-1.41,6.83-2.18c65.7-22.19,120.32-73.11,183.92-106.62 c15.92-8.38,32.9-15.94,50.24-16.79c33.56-1.66,58,21.66,74.78,44.27c16.82,22.61,30.93,49.93,58,70.51 c13.56,10.31,28.64,17.12,44.18,21.41c37.88,10.46,78.87,6.32,111.06-4.15c27.15-8.83,53.68-21.98,83.9-37.19 c20.79-10.47,42.22-21.66,65.94-28.52c12.91-3.74,26.65-5.95,38.8-3.41c21.97,4.59,32.51,19.84,45.56,37 c5.1,6.7,10.42,13.64,16.63,20.17c24.17,25.44,62.46,40.43,97.29,40.02c33.4-0.4,64.4-12.79,96.95-23.28 c69.59-22.74,147.95-37.59,220.77-34.97"/><path d="M-171.54,1001.81c46.34,38.99,110.37,34.02,161.51,23.08c56.91-12.05,109.05-36.15,163.29-54.6 c64.63-21.99,135.89-42.01,207.52-81.16c5.74-3.13,11.46-6.33,17.18-9.57c73.14-41.45,148.8-88.84,222.1-101.39 c3.86-0.65,7.73-1.21,11.62-1.66c75.72-9.08,143.19,13.46,201.59,72.28c14.43,14.53,27.39,30.85,39.43,48.06 c27.09,38.85,52.94,84.21,83.14,122.79c37.05,47.2,81.89,86.2,134.98,103.21c35.45,11.36,71.32,11.71,107.18-2.34 c29.6-11.6,56.22-33.49,80.14-56.23c3.63-3.45,7.22-6.92,10.76-10.39c48.26-47.3,93.15-96.94,144.54-140.44 c2.24-1.9,4.51-3.79,6.78-5.67c49.9-41.1,114.32-76.93,176.08-60.11c56.47,15.56,90.86,69.09,139.4,104.75 c56.49,41.52,124.5,53.91,189.33,35.77c2.31-0.64,4.59-1.33,6.86-2.05c66.03-21,120.82-72,184.4-105.74 c15.9-8.44,32.82-16.06,50.13-17.24c33.21-2.27,58.01,19.32,75.62,40.56c17.65,21.24,32.76,47.23,59.87,67.26 c13.55,10.01,28.49,16.82,43.8,21.35c37.41,11.06,77.58,8.9,109.6,0.48c27.08-7.12,53.68-18.52,84.01-32.84 c20.81-9.83,42.16-20.77,65.64-27.71c12.79-3.78,26.35-6.14,38.42-4.01c21.85,3.86,32.98,17.84,46.53,34.1 c5.3,6.36,10.79,13.01,17.09,19.34c24.47,24.6,61.87,40.2,96.31,40.69c32.85,0.46,63.59-10.79,95.76-20.67 c68.8-21.12,145.92-36.49,217.54-35.35"/><path d="M-169.35,995.49c45.6,38.22,107.73,35.42,157.9,26.91c55.85-9.34,107.47-30.68,161.03-45.99 c66.26-18.94,139.26-35.6,212.1-74.13c5.84-3.09,11.65-6.25,17.45-9.46c74.15-41.16,149.28-90.44,222.7-106.22 c3.86-0.82,7.75-1.55,11.64-2.19c75.99-12.56,145.92,5.49,206.51,63.01c15,14.24,28.42,30.42,40.83,47.62 c27.92,38.8,54.01,84.58,84.33,123.66c37.12,47.71,81.93,87.5,134.93,106.21c35.11,12.39,71.05,14.34,107.21,1.07 c29.9-10.97,56.68-32.81,80.6-55.69c3.63-3.46,7.21-6.96,10.74-10.45c48.11-47.62,92.31-98.04,143.42-142.04 c2.23-1.92,4.48-3.83,6.75-5.73c49.68-41.55,113.98-77.5,176.04-61.41c56.65,14.88,92,67.34,140.51,103.24 c56.46,41.8,123.6,56.54,188.73,39.62c2.32-0.6,4.61-1.24,6.89-1.92c66.36-19.81,121.33-70.89,184.88-104.86 c15.89-8.49,32.75-16.19,50.02-17.69c32.85-2.87,58.02,16.98,76.45,36.84c18.48,19.86,34.59,44.53,61.74,64 c13.54,9.71,28.33,16.53,43.43,21.29c36.95,11.66,76.29,11.49,108.14,5.11c27.02-5.41,53.67-15.06,84.11-28.48 c20.83-9.19,42.1-19.89,65.35-26.89c12.66-3.82,26.04-6.33,38.04-4.6c21.72,3.12,33.45,15.84,47.5,31.2 c5.51,6.02,11.16,12.38,17.55,18.51c24.76,23.76,61.29,39.97,95.34,41.35c32.29,1.32,62.75-8.86,94.58-18.06 c67.96-19.65,143.89-35.39,214.32-35.72"/><path d="M-167.16,989.17c44.86,37.45,105.08,36.81,154.29,30.73c54.8-6.64,105.93-25.11,158.77-37.39 c67.95-15.78,142.64-29.18,216.68-67.11c5.93-3.04,11.83-6.16,17.71-9.36c75.16-40.87,149.76-92.03,223.3-111.05 c3.87-0.99,7.76-1.9,11.67-2.71c76.25-16.03,148.66-2.48,211.42,53.75c15.56,13.94,29.44,29.99,42.23,47.18 c28.76,38.76,55.08,84.96,85.51,124.53c37.19,48.22,81.98,88.79,134.87,109.2c34.76,13.41,70.78,16.96,107.24,4.47 c30.19-10.34,57.14-32.14,81.07-55.16c3.62-3.48,7.2-6.99,10.72-10.51c47.96-47.94,91.48-99.15,142.31-143.65 c2.22-1.94,4.46-3.88,6.72-5.79c49.46-42.01,113.65-78.07,176-62.71c56.84,14.19,93.14,65.6,141.61,101.73 c56.43,42.07,122.69,59.16,188.13,43.47c2.33-0.56,4.64-1.16,6.93-1.8c66.69-18.62,121.84-69.78,185.35-103.99 c15.87-8.54,32.67-16.3,49.9-18.14c32.5-3.47,58.03,14.64,77.29,33.13c19.31,18.49,36.41,41.83,63.6,60.75 c13.52,9.41,28.18,16.23,43.06,21.23c36.48,12.27,75,14.09,106.68,9.75c26.97-3.7,53.67-11.6,84.22-24.13 c20.85-8.55,42.04-19,65.05-26.07c12.54-3.85,25.74-6.51,37.66-5.2c21.6,2.38,33.92,13.83,48.47,28.3 c5.71,5.68,11.54,11.75,18.01,17.67c25.05,22.92,60.71,39.72,94.36,42.02c31.73,2.16,61.91-6.93,93.4-15.46 c67.12-18.17,141.86-34.29,211.1-36.09"/><path d="M-164.96,982.85c44.12,36.67,102.43,38.21,150.67,34.55c53.74-3.94,104.43-19.44,156.51-28.78 c69.68-12.49,146.01-22.76,221.26-60.09c6.03-2.99,12.02-6.08,17.98-9.25c76.18-40.58,150.24-93.63,223.9-115.88 c3.87-1.16,7.77-2.24,11.69-3.23c76.52-19.51,151.4-10.46,216.34,44.48c16.13,13.65,30.46,29.57,43.63,46.75 c29.6,38.72,56.15,85.33,86.7,125.41c37.26,48.73,82.04,90.07,134.82,112.19c34.42,14.43,70.51,19.59,107.27,7.88 c30.48-9.71,57.6-31.46,81.54-54.62c3.62-3.5,7.18-7.03,10.69-10.57c47.8-48.26,90.64-100.25,141.19-145.25 c2.21-1.97,4.44-3.92,6.69-5.86c49.24-42.46,113.31-78.64,175.95-64.01c57.02,13.5,94.28,63.86,142.71,100.22 c56.39,42.35,121.79,61.78,187.53,47.33c2.34-0.51,4.66-1.07,6.96-1.67c67.02-17.43,122.34-68.67,185.83-103.11 c15.86-8.6,32.59-16.42,49.79-18.59c32.14-4.06,58.04,12.31,78.13,29.42c20.14,17.12,38.24,39.13,65.47,57.5 c13.51,9.11,28.03,15.93,42.68,21.17c36.02,12.87,73.72,16.69,105.22,14.38c26.91-1.98,53.66-8.15,84.33-19.78 c20.86-7.91,41.98-18.11,64.76-25.25c12.42-3.89,25.44-6.7,37.28-5.8c21.48,1.64,34.4,11.83,49.44,25.4 c5.92,5.34,11.91,11.12,18.47,16.84c25.35,22.09,60.12,39.48,93.39,42.69c31.17,3.01,61.07-5,92.21-12.85 c66.28-16.7,139.83-33.19,207.88-36.47"/><path d="M-162.77,976.53c43.37,35.9,99.78,39.6,147.06,38.37c52.69-1.24,102.95-13.66,154.25-20.17 c71.43-9.06,149.39-16.35,225.83-53.06c6.13-2.94,12.21-6,18.25-9.15c77.19-40.29,150.72-95.22,224.5-120.71 c3.88-1.33,7.79-2.58,11.72-3.75c76.78-22.98,154.14-18.44,221.26,35.22c16.7,13.35,31.48,29.14,45.03,46.31 c30.43,38.68,57.22,85.71,87.89,126.28c37.33,49.24,82.1,91.34,134.76,115.19c34.09,15.43,70.25,22.22,107.3,11.28 c30.77-9.08,58.06-30.79,82.01-54.08c3.62-3.52,7.17-7.07,10.67-10.63c47.65-48.58,89.81-101.36,140.08-146.86 c2.2-1.99,4.41-3.96,6.65-5.92c49.03-42.92,112.97-79.21,175.91-65.31c57.21,12.82,95.42,62.11,143.81,98.7 c56.36,42.62,120.88,64.41,186.93,51.18c2.35-0.47,4.68-0.98,6.99-1.54c67.36-16.23,122.85-67.56,186.31-102.23 c15.85-8.65,32.51-16.53,49.67-19.04c31.79-4.65,58.05,9.97,78.96,25.71c20.97,15.74,40.07,36.44,67.34,54.25 c13.5,8.81,27.87,15.63,42.31,21.1c35.55,13.48,72.44,18.59,103.76,19.01c26.85,0.36,53.65-4.7,84.43-15.42 c20.88-7.27,41.92-17.22,64.47-24.43c12.29-3.93,25.13-6.89,36.89-6.4c21.36,0.9,34.88,9.83,50.41,22.5 c6.13,5,12.28,10.49,18.93,16c25.64,21.25,59.53,39.22,92.41,43.35c30.62,3.85,60.23-3.07,91.03-10.24 c65.44-15.23,137.8-32.09,204.66-36.84"/><path d="M-160.57,970.21c42.63,35.13,97.13,41,143.45,42.19c51.63,1.47,101.95-19.53,152-11.56 c72.47,11.53,152.76-9.93,230.41-46.04c6.22-2.89,12.39-5.91,18.51-9.04c78.21-40,151.2-96.81,225.1-125.53 c3.88-1.5,7.8-2.93,11.74-4.27c77.04-26.46,156.89-26.43,226.18,25.95c17.27,13.05,32.5,28.71,46.43,45.87 c31.27,38.63,58.29,86.08,89.08,127.15c37.4,49.75,82.17,92.6,134.71,118.18c33.76,16.43,69.98,24.85,107.33,14.69 c31.06-8.45,58.52-30.11,82.48-53.55c3.61-3.53,7.16-7.11,10.65-10.69c47.49-48.9,88.97-102.46,138.96-148.46 c2.18-2.01,4.39-4.01,6.62-5.99c48.81-43.37,112.64-79.78,175.87-66.61c57.39,12.13,96.57,60.37,144.92,97.19 c56.32,42.9,119.98,67.03,186.34,55.04c2.36-0.43,4.7-0.9,7.03-1.41c67.69-15.04,123.35-66.45,186.78-101.35 c15.83-8.71,32.43-16.64,49.56-19.5c31.44-5.23,58.05,7.63,79.8,21.99c21.8,14.37,41.9,33.74,69.21,50.99 c13.48,8.52,27.72,15.34,41.93,21.04c35.08,14.09,71.15,21.91,102.3,23.64c26.8,1.48,53.64-1.25,84.54-11.07 c20.9-6.64,41.86-16.33,64.17-23.61c12.17-3.97,24.83-7.08,36.51-7c21.24,0.16,35.35,7.82,51.38,19.6 c6.33,4.66,12.65,9.86,19.39,15.17c25.93,20.42,58.95,38.97,91.44,44.02c30.06,4.68,59.39-1.14,89.85-7.63 c64.6-13.76,135.76-30.99,201.43-37.21"/><path d="M-158.38,963.89c41.89,34.36,94.48,42.39,139.84,46.01c50.57,4.17,100.92-12.77,149.74-2.96 c73.46,14.77,156.14-3.51,234.99-39.01c6.32-2.84,12.58-5.83,18.78-8.94c79.22-39.71,151.68-98.41,225.7-130.36 c3.89-1.67,7.81-3.27,11.77-4.79c77.31-29.93,159.63-34.41,231.09,16.69c17.83,12.75,33.52,28.28,47.82,45.43 c32.1,38.59,59.35,86.46,90.27,128.02c37.48,50.26,82.24,93.85,134.66,121.18c33.43,17.43,69.71,27.48,107.35,18.09 c31.35-7.82,58.98-29.44,82.95-53.01c3.61-3.55,7.15-7.15,10.63-10.75c47.34-49.23,88.14-103.57,137.84-150.07 c2.17-2.03,4.37-4.05,6.59-6.05c48.59-43.82,112.3-80.35,175.83-67.91c57.58,11.44,97.71,58.63,146.02,95.68 c56.29,43.17,119.07,69.65,185.74,58.89c2.37-0.38,4.73-0.81,7.06-1.29c68.02-13.85,123.86-65.33,187.26-100.47 c15.82-8.76,32.35-16.75,49.44-19.95c31.08-5.81,58.06,5.29,80.64,18.28c22.63,12.99,43.72,31.05,71.08,47.74 c13.47,8.22,27.56,15.04,41.56,20.98c34.61,14.7,69.87,24.54,100.84,28.27c26.74,3.22,53.63,2.19,84.65-6.72 c20.91-6.01,41.8-15.45,63.88-22.8c12.04-4.01,24.53-7.27,36.13-7.59c21.11-0.58,35.83,5.81,52.34,16.7 c6.54,4.31,13.02,9.23,19.85,14.34c26.21,19.58,58.37,38.7,90.47,44.69c29.51,5.51,58.55,0.79,88.66-5.02 c63.76-12.3,133.73-29.89,198.21-37.58"/><path d="M-156.19,957.58c41.15,33.58,91.83,43.79,136.23,49.83c49.52,6.87,99.75-5.78,147.48,5.65 c74.52,17.85,159.51,2.9,239.56-31.99c6.42-2.8,12.76-5.75,19.05-8.83c80.24-39.42,152.17-100,226.3-135.19 c3.89-1.84,7.83-3.61,11.8-5.32c77.57-33.41,162.38-42.41,236.01,7.43c18.4,12.45,34.54,27.85,49.22,45 c32.94,38.55,60.42,86.83,91.46,128.89c37.55,50.77,82.33,95.09,134.6,124.17c33.11,18.42,69.44,30.11,107.38,21.49 c31.65-7.19,59.44-28.76,83.41-52.47c3.61-3.57,7.14-7.18,10.6-10.81c47.19-49.55,87.3-104.67,136.73-151.67 c2.16-2.05,4.34-4.09,6.55-6.12c48.37-44.28,111.96-80.93,175.79-69.21c57.77,10.76,98.85,56.89,147.12,94.16 c56.25,43.45,118.17,72.28,185.14,62.74c2.38-0.34,4.75-0.73,7.1-1.16c68.35-12.66,124.37-64.22,187.74-99.59 c15.8-8.82,32.28-16.86,49.33-20.4c30.73-6.38,58.07,2.95,81.47,14.57c23.46,11.62,45.55,28.35,72.94,44.49 c13.46,7.92,27.4,14.74,41.18,20.92c34.15,15.31,68.58,27.17,99.38,32.9c26.68,4.97,53.62,5.63,84.76-2.37 c20.93-5.38,41.74-14.56,63.59-21.98c11.92-4.05,24.22-7.46,35.75-8.19c20.99-1.33,36.31,3.8,53.31,13.8 c6.75,3.97,13.39,8.6,20.31,13.5c26.5,18.75,57.79,38.43,89.49,45.36c28.95,6.33,57.7,2.71,87.48-2.42 c62.92-10.84,131.7-28.79,194.99-37.96"/><path d="M-153.99,951.26c40.41,32.81,89.18,45.18,132.61,53.65c48.46,9.57,98.41,1.4,145.22,14.26 c75.66,20.78,162.89,9.32,244.14-24.96c6.52-2.75,12.95-5.66,19.31-8.73c81.25-39.13,152.65-101.6,226.9-140.02 c3.9-2.01,7.84-3.96,11.82-5.84c77.84-36.88,165.12-50.4,240.93-1.84c18.97,12.15,35.56,27.42,50.62,44.56 c33.77,38.51,61.49,87.2,92.65,129.77c37.62,51.28,82.42,96.32,134.55,127.16c32.8,19.4,69.19,32.82,107.41,24.9 c31.95-6.5,59.9-28.09,83.88-51.94c3.61-3.58,7.13-7.22,10.58-10.87c47.03-49.87,86.47-105.77,135.61-153.28 c2.15-2.08,4.32-4.14,6.52-6.18c48.15-44.73,111.63-81.5,175.75-70.51c57.95,10.07,99.99,55.14,148.22,92.65 c56.22,43.73,117.26,74.9,184.54,66.6c2.39-0.3,4.77-0.64,7.13-1.03c68.68-11.47,124.87-63.11,188.21-98.71 c15.79-8.87,32.2-16.96,49.22-20.85c30.39-6.95,58.08,0.62,82.31,10.86c24.3,10.24,47.37,25.66,74.81,41.24 c13.44,7.63,27.25,14.45,40.81,20.86c33.68,15.92,67.28,29.8,97.92,37.53c26.62,6.71,53.61,9.07,84.86,1.99 c20.94-4.75,41.68-13.67,63.29-21.16c11.8-4.09,23.92-7.68,35.37-8.79c20.87-2.11,36.79,1.79,54.28,10.9 c6.96,3.62,13.76,7.98,20.77,12.67c26.79,17.92,57.21,38.15,88.52,46.02c28.4,7.14,56.86,4.64,86.29,0.19 c62.08-9.37,129.67-27.69,191.77-38.33"/><path d="M-151.8,944.94c39.66,32.04,86.53,46.58,129,57.47c47.41,12.27,95.19,16.58,142.97,22.87 c79.75,10.49,166.26,15.74,248.72-17.94c6.61-2.7,13.13-5.58,19.58-8.62c82.26-38.84,153.13-103.19,227.5-144.85 c3.9-2.18,7.85-4.3,11.85-6.36c78.1-40.36,167.87-58.4,245.84-11.1c19.54,11.85,36.59,27,52.02,44.12 c34.61,38.46,62.56,87.58,93.83,130.64c37.69,51.79,82.52,97.55,134.5,130.16c32.49,20.38,68.92,35.45,107.44,28.3 c32.24-5.87,60.36-27.41,84.35-51.4c3.6-3.6,7.12-7.26,10.56-10.93c46.88-50.19,85.63-106.88,134.49-154.88 c2.13-2.1,4.3-4.18,6.49-6.24c47.93-45.18,111.29-82.07,175.7-71.81c58.14,9.38,101.13,53.4,149.32,91.14 c56.19,44,116.36,77.52,183.94,70.45c2.41-0.25,4.79-0.55,7.16-0.91c69.01-10.28,125.38-62,188.69-97.83 c15.77-8.93,32.13-17.05,49.1-21.3c30.04-7.51,58.09-1.72,83.14,7.14c25.13,8.87,49.2,22.97,76.68,37.98 c13.43,7.33,27.09,14.15,40.44,20.8c33.21,16.53,65.99,32.44,96.46,42.16c26.55,8.47,53.6,12.51,84.97,6.34 c20.96-4.12,41.62-12.78,63-20.34c11.67-4.13,23.61-7.87,34.98-9.39c20.74-2.85,37.27-0.23,55.25,8 c7.16,3.28,14.13,7.35,21.23,11.83c27.08,17.1,56.63,37.87,87.54,46.69c27.86,7.95,56.02,6.56,85.11,2.8 c61.24-7.92,127.64-26.59,188.55-38.7"/><path d="M-149.61,938.62c38.92,31.27,83.88,47.97,125.39,61.29c46.35,14.98,93.48,22.83,140.71,31.47 c81.19,14.86,169.64,22.16,253.3-10.92c6.71-2.65,13.32-5.5,19.85-8.52c83.28-38.56,153.61-104.78,228.1-149.68 c3.91-2.35,7.87-4.65,11.87-6.88c78.37-43.83,170.71-66.55,250.76-20.37c20.13,11.51,37.61,26.57,53.42,43.69 c35.44,38.42,63.63,87.95,95.02,131.51c37.76,52.31,82.63,98.76,134.44,133.15c32.18,21.36,68.64,38.08,107.47,31.71 c32.53-5.24,60.82-26.74,84.82-50.86c3.6-3.62,7.11-7.3,10.54-10.99c46.73-50.51,84.8-107.98,133.38-156.49 c2.12-2.12,4.27-4.22,6.45-6.31c47.71-45.64,110.95-82.64,175.66-73.11c58.32,8.7,102.27,51.66,150.43,89.63 c56.15,44.28,115.45,80.15,183.35,74.31c2.42-0.21,4.82-0.47,7.2-0.78c69.34-9.08,125.89-60.89,189.16-96.96 c15.76-8.98,32.06-17.15,48.99-21.75c29.7-8.06,58.1-4.06,83.98,3.43c25.96,7.49,51.02,20.28,78.55,34.73 c13.41,7.04,26.94,13.86,40.06,20.74c32.73,17.15,64.68,35.09,95,46.79c26.48,10.22,53.59,15.94,85.08,10.69 c20.97-3.5,41.56-11.89,62.7-19.52c11.55-4.17,23.31-8.06,34.6-9.99c20.62-3.59,37.75-2.25,56.22,5.1 c7.37,2.93,14.5,6.72,21.69,11c27.36,16.27,56.06,37.58,86.57,47.36c27.31,8.76,55.18,8.43,83.93,5.41 c60.38-6.57,125.61-25.49,185.33-39.08"/><path d="M-147.41,932.3c38.18,30.5,81.24,49.37,121.78,65.11c45.29,17.68,91.69,29.11,138.45,40.08 c82.5,19.36,173.01,28.57,257.87-3.89c6.81-2.6,13.51-5.42,20.11-8.41c84.29-38.27,154.09-106.38,228.7-154.5 c3.91-2.52,7.88-4.99,11.9-7.4c78.63-47.31,173.44-74.53,255.68-29.63c20.7,11.22,38.63,26.14,54.82,43.25 c36.28,38.38,64.7,88.33,96.21,132.38c37.83,52.82,82.76,99.98,134.39,136.14c31.88,22.33,68.37,40.7,107.5,35.11 c32.82-4.61,61.28-26.06,85.29-50.33c3.6-3.64,7.1-7.33,10.51-11.06c46.57-50.83,83.96-109.09,132.26-158.09 c2.11-2.14,4.25-4.27,6.42-6.37c47.49-46.09,110.62-83.21,175.62-74.41c58.51,8.01,103.41,49.92,151.53,88.11 c56.12,44.55,114.55,82.77,182.75,78.16c2.43-0.16,4.84-0.38,7.23-0.65c69.67-7.89,126.39-59.78,189.64-96.08 c15.75-9.03,31.99-17.24,48.87-22.2c29.36-8.62,58.11-6.4,84.82-0.28c26.79,6.12,52.82,17.64,80.42,31.48 c13.38,6.77,26.77,13.59,39.69,20.67c32.23,17.82,63.37,37.73,93.54,51.42c26.4,11.98,53.58,19.37,85.19,15.05 c20.99-2.87,41.5-11.01,62.41-18.7c11.42-4.21,23.01-8.24,34.22-10.58c20.5-4.33,38.23-4.27,57.19,2.2 c7.58,2.59,14.87,6.1,22.16,10.16c27.65,15.45,55.5,37.28,85.59,48.03c26.77,9.56,54.34,10.36,82.74,8.02 c59.55-5.1,123.58-24.39,182.1-39.45"/><path d="M-145.22,925.98c37.44,29.72,78.59,50.76,118.17,68.94c44.24,20.38,89.82,35.41,136.19,48.69 c83.7,23.96,176.39,34.99,262.45,3.13c6.9-2.55,13.69-5.33,20.38-8.31c85.31-37.98,154.57-107.97,229.3-159.33 c3.92-2.69,7.89-5.33,11.93-7.92c78.89-50.78,176.16-82.51,260.59-38.9c21.26,10.92,39.65,25.71,56.22,42.81 c37.12,38.34,65.77,88.7,97.4,133.25c37.9,53.33,82.89,101.18,134.33,139.14c31.59,23.31,68.1,43.33,107.53,38.51 c33.11-3.98,61.74-25.39,85.76-49.79c3.6-3.65,7.09-7.37,10.49-11.12c46.42-51.15,83.13-110.19,131.14-159.7 c2.1-2.16,4.23-4.31,6.39-6.44c47.27-46.54,110.28-83.78,175.58-75.71c58.69,7.33,104.55,48.17,152.63,86.6 c56.08,44.83,113.64,85.39,182.15,82.01c2.44-0.12,4.86-0.3,7.27-0.53c70-6.7,126.9-58.67,190.12-95.2 c15.73-9.09,31.92-17.33,48.76-22.65c29.03-9.16,58.12-8.73,85.65-3.99c27.62,4.74,54.65,14.94,82.28,28.22 c13.37,6.47,26.61,13.29,39.31,20.61c31.76,18.43,62.06,40.38,92.08,56.05c26.32,13.74,53.57,22.8,85.29,19.4 c21-2.25,41.44-10.12,62.12-17.89c11.3-4.25,22.7-8.43,33.84-11.18c20.37-5.07,38.71-6.29,58.16-0.7 c7.79,2.24,15.24,5.48,22.62,9.33c27.91,14.67,54.94,36.98,84.62,48.69c26.24,10.35,53.5,12.29,81.56,10.63 c58.71-3.63,121.55-23.29,178.88-39.82"/><path d="M-143.03,919.66c36.7,28.95,75.94,52.16,114.56,72.76c43.18,23.08,87.86,41.73,133.93,57.29 c84.77,28.64,179.77,41.41,267.03,10.16c7-2.51,13.88-5.25,20.64-8.2c86.32-37.69,155.05-109.57,229.89-164.16 c3.92-2.86,7.91-5.68,11.95-8.45c79.16-54.25,178.89-90.49,265.51-48.16c21.83,10.62,40.67,25.28,57.62,42.38 c37.95,38.3,66.83,89.07,98.59,134.13c37.98,53.84,83.03,102.38,134.28,142.13c31.3,24.28,67.83,45.96,107.56,41.92 c33.4-3.35,62.2-24.71,86.22-49.25c3.59-3.67,7.08-7.41,10.47-11.18c46.26-51.47,82.29-111.3,130.03-161.3 c2.09-2.19,4.2-4.35,6.35-6.5c47.05-47,109.94-84.35,175.54-77.01c58.88,6.64,105.69,46.43,153.73,85.09 c56.05,45.1,112.74,88.02,181.55,85.87c2.45-0.08,4.88-0.21,7.3-0.4c70.33-5.51,127.4-57.56,190.59-94.32 c15.72-9.14,31.85-17.42,48.65-23.1c28.69-9.71,58.13-11.07,86.49-7.71c28.45,3.37,56.48,12.25,84.15,24.97 c13.36,6.17,26.46,12.99,38.94,20.55c31.29,19.03,60.73,43.02,90.62,60.68c26.23,15.5,53.56,26.16,85.4,23.75 c21.02-1.67,41.38-9.23,61.82-17.07c11.18-4.28,22.4-8.62,33.46-11.78c20.25-5.81,39.2-8.34,59.13-3.6 c8,1.87,15.61,4.85,23.08,8.5c28.2,13.84,54.38,36.68,83.64,49.36c25.71,11.14,52.66,14.22,80.38,13.23 c57.87-2.16,119.52-22.19,175.66-40.2"/><path d="M-140.83,913.34c35.95,28.18,73.29,53.55,110.94,76.58c42.12,25.79,85.83,48.05,131.68,65.9 c85.71,33.37,183.14,47.82,271.6,17.18c7.1-2.46,14.06-5.17,20.91-8.1c87.34-37.4,155.53-111.16,230.49-168.99 c3.93-3.03,7.92-6.02,11.98-8.97c79.42-57.73,181.62-98.47,270.43-57.43c22.39,10.33,41.69,24.86,59.02,41.94 c38.79,38.25,67.9,89.45,99.78,135c38.05,54.35,83.26,103.48,134.23,145.13c31.07,25.18,67.56,48.59,107.58,45.32 c33.69-2.72,62.66-24.03,86.69-48.72c3.59-3.69,7.07-7.45,10.44-11.24c46.11-51.79,81.45-112.4,128.91-162.91 c2.07-2.21,4.18-4.4,6.32-6.57c46.83-47.45,109.61-84.92,175.49-78.31c59.06,5.95,106.83,44.69,154.84,83.57 c56.02,45.38,111.83,90.64,180.95,89.72c2.46-0.03,4.9-0.12,7.33-0.27c70.66-4.32,127.91-56.44,191.07-93.44 c15.7-9.2,31.79-17.5,48.53-23.55c28.36-10.25,58.14-13.41,87.33-11.42c29.28,1.99,58.31,9.55,86.02,21.72 c13.35,5.88,26.3,12.69,38.56,20.49c30.83,19.64,59.38,45.71,89.16,65.31c26.11,17.29,53.55,29.61,85.51,28.1 c21.04-1.03,41.32-8.34,61.53-16.25c11.05-4.32,22.09-8.81,33.07-12.38c20.13-6.55,39.67-10.35,60.1-6.5 c8.2,1.53,15.98,4.22,23.54,7.66c28.49,13.01,53.83,36.36,82.67,50.03c25.18,11.93,51.82,16.15,79.19,15.84 c57.04-0.69,117.49-21.09,172.44-40.57"/><path d="M-138.64,907.03c74.62,58.08,150.22,116.76,236.75,154.91c86.53,38.15,186.52,54.24,276.18,24.2 c98.96-33.15,171.3-115.96,252.27-181.81c80.97-65.85,191.71-117.96,287.35-76.18c74.34,32.48,115.09,110.75,161.38,177.37 c38.12,54.86,83.34,104.78,134.17,148.12c30.74,26.21,67.29,51.21,107.61,48.73c39.05-2.41,71.7-30.13,97.58-59.48 c45.96-52.11,80.62-113.51,127.8-164.51c47.18-51.01,112.54-92.39,181.74-86.24c128.41,11.41,207.38,175.06,336.29,175.64 c92.3,0.41,161.18-83.57,247.33-116.7c69.68-26.8,152.13-17.65,214.24,23.77c57.04,38.04,104.77,103.7,173.32,102.4 c53.71-1.02,101.81-45.33,154.99-37.81c40.05,5.66,69.75,38.99,105.69,57.52c75.94,39.16,167.61,8.53,247.23-22.49"/><path d="M-139.04,901.32c74.91,55.6,150.77,113.42,235.73,153.25c89.13,41.78,189.13,67.33,277.86,44.15 c72.16-18.85,129.92-66.32,189.53-115.77c20.92-17.32,41.84-35.16,63.22-52.04c82.31-65.01,192.07-118.52,287.13-82.06 c73.82,28.42,115.25,100.7,162.34,162.21c22.04,28.74,46.36,56.05,72.74,81.71c20.06,19.53,41.37,38.09,63.73,55.72 c23.95,18.85,51.21,37.31,80.81,44.33c9.13,2.17,18.47,3.23,27.98,2.86c39.08-1.52,71.64-26.8,97.53-53.48 c19.52-20.19,36.99-41.9,54.26-63.85c23.34-29.68,46.58-59.61,74.02-86.69c25.84-25.31,56.98-48.4,91.19-64.06 c29.26-13.39,60.43-21.34,92.2-19.68c63.45,3.45,114.75,42.65,166.42,81.16c52.28,39,105.1,77.24,170.35,77.45 c73.35,0.23,132.38-48.02,195.76-82.38c16.9-9.15,34.12-17.31,52.04-23.28c49.07-16.39,104.17-15.08,154.18,2.36 c20.25,7.13,39.73,16.92,57.89,28.82c43.66,28.66,82.39,70.02,128.25,87.52c14.68,5.64,30.15,8.81,46.82,8.22 c53.83-1.95,102.43-45.14,155.96-38.11c40.3,5.29,70.67,37.39,107.02,55.47c76.79,38.22,168.55,10.25,248.09-17.2"/><path d="M-139.43,895.62c75.19,53.12,151.28,110.23,234.71,151.6c91.75,45.49,191.42,80.46,279.54,64.09 c70.83-13.16,127.87-56.32,188.69-103.26c21.38-16.44,42.78-33.89,64.53-50.56c83.66-64.17,192.43-119.08,286.91-87.93 c73.31,24.37,115.41,90.66,163.3,147.05c22.43,26.33,47.14,51.39,73.95,75.03c20.37,18,42.07,35.18,64.82,51.71 c24.41,17.66,52.06,35.27,81.89,42.42c9.2,2.2,18.57,3.39,28.09,3.24c39.11-0.63,71.58-23.47,97.48-47.47 c19.5-18.22,36.95-37.81,54.19-57.7c23.3-26.91,46.72-54.12,74.57-78.85c26.16-23.23,57.81-44.6,92.47-59.95 c29.66-13.13,60.92-21.78,92.57-21.29c63.09,1.22,114.08,36.35,165.83,71.2c52.33,35.32,105.77,70.25,171.42,70.37 c73.82,0.13,133.61-44.08,196.65-74.47c16.82-8.08,33.89-15.18,51.61-20.15c48.5-13.68,102.62-10.36,151.96,8.59 c20.09,7.72,39.48,18.12,57.93,30c44.13,28.51,83.75,66.6,129.89,82.19c14.74,5.04,30.25,7.75,46.93,6.88 c53.95-2.88,103.05-44.95,156.92-38.42c40.55,4.92,71.6,35.79,108.34,53.43c77.64,37.27,169.5,11.96,248.95-11.91"/><path d="M-139.83,889.92c75.47,50.63,151.75,107.16,233.7,149.94c94.37,49.27,193.38,93.59,281.22,84.03 c69.3-7.54,125.82-46.31,187.85-90.74c21.84-15.55,43.72-32.62,65.84-49.07c85-63.33,192.79-119.64,286.68-93.8 c72.79,20.31,115.57,80.61,164.26,131.9c22.83,23.92,47.91,46.73,75.15,68.35c20.69,16.47,42.77,32.26,65.92,47.7 c24.87,16.48,52.9,33.23,82.96,40.51c9.27,2.24,18.67,3.55,28.19,3.61c39.14,0.27,71.59-20.05,97.43-41.47 c19.53-16.19,36.9-33.72,54.13-51.55c23.27-24.14,46.91-48.59,75.12-71.02c26.53-21.1,58.64-40.79,93.76-55.84 c30.06-12.87,61.41-22.31,92.95-22.9c62.73-1.18,113.41,30.05,165.24,61.24c52.39,31.64,106.44,63.27,172.5,63.3 c74.29,0.04,134.84-40.14,197.55-66.56c16.73-7.01,33.66-13.04,51.19-17.02c47.93-10.97,101.06-5.56,149.75,14.82 c19.92,8.34,39.22,19.31,57.97,31.18c44.6,28.37,85.15,63.07,131.53,76.86c14.81,4.4,30.35,6.69,47.04,5.55 c54.07-3.81,103.67-44.76,157.89-38.73c40.81,4.54,72.52,34.19,109.67,51.38c78.48,36.32,170.45,13.68,249.82-6.62"/><path d="M-140.22,884.22c75.76,48.15,152.19,104.2,232.68,148.29c97,53.13,196.72,121.46,282.9,103.98 c66.24-13.44,123.77-36.3,187.02-78.22c22.3-14.67,44.67-31.34,67.16-47.59c86.35-62.49,193.2-120.42,286.46-99.68 c72.31,16.08,115.73,70.57,165.22,116.74c23.22,21.51,48.69,42.07,76.35,61.67c21,14.95,43.44,29.39,67.01,43.69 c25.3,15.35,53.74,31.2,84.04,38.6c9.33,2.28,18.77,3.72,28.29,3.99c39.17,1.16,71.54-16.69,97.38-35.47 c19.52-14.19,36.86-29.62,54.06-45.4c23.23-21.37,47.11-43.06,75.67-63.19c26.91-18.97,59.47-36.99,95.04-51.73 c30.46-12.61,61.9-22.77,93.32-24.51c62.36-3.45,112.74,23.75,164.65,51.28c52.44,27.96,107.1,56.28,173.57,56.22 c74.75-0.06,136.07-36.19,198.44-58.64c16.65-5.95,33.44-10.91,50.76-13.89c47.36-8.26,99.49-0.75,147.53,21.05 c19.74,8.96,38.97,20.51,58.01,32.36c45.08,28.23,86.51,59.63,133.16,71.53c14.87,3.79,30.46,5.63,47.15,4.21 c54.2-4.74,104.3-44.57,158.85-39.03c41.06,4.17,73.45,32.59,110.99,49.33c79.33,35.37,171.39,15.4,250.68-1.33"/><path d="M-140.62,878.52c76.04,45.66,152.6,101.34,231.66,146.63c99.61,57.06,197.31,137.86,284.58,123.92 c64.88-10.37,121.64-26.44,186.18-65.71c22.73-13.83,45.61-30.07,68.47-46.1c87.69-61.65,193.55-121.03,286.24-105.55 c71.79,11.99,115.8,60.64,166.18,101.58c23.57,19.16,49.46,37.41,77.55,54.99c21.31,13.42,44.14,26.49,68.11,39.68 c25.76,14.18,54.58,29.16,85.12,36.69c9.4,2.32,18.87,3.88,28.4,4.37c39.2,2.05,71.49-13.32,97.33-29.47 c19.51-12.19,36.81-25.53,53.99-39.25c23.2-18.6,47.32-37.53,76.22-55.36c27.29-16.84,60.29-33.19,96.32-47.62 c30.86-12.35,62.39-23.23,93.7-26.12c61.98-5.72,112.07,17.46,164.06,41.33c52.5,24.28,107.77,49.29,174.65,49.15 c75.22-0.16,137.3-32.25,199.34-50.73c16.57-4.88,33.21-8.78,50.33-10.76c46.79-5.55,97.93,4.07,145.32,27.28 c19.57,9.59,38.71,21.7,58.05,33.54c45.55,28.09,87.87,56.18,134.8,66.21c14.93,3.19,30.56,4.57,47.27,2.87 c54.32-5.67,104.92-44.38,159.81-39.34c41.31,3.79,74.37,30.99,112.32,47.28c80.18,34.42,172.34,17.12,251.54,3.96"/><path d="M-141.01,872.82C-64.69,916,11.96,971.39,89.63,1017.8c102.2,61.07,197.34,132.23,286.26,143.86 c63.53,8.31,119.59-16.45,185.34-53.19c23.19-12.96,46.55-28.79,69.78-44.62c89.03-60.81,193.9-121.64,286.02-111.43 c71.27,7.9,115.95,50.62,167.14,86.42c23.96,16.76,50.24,32.75,78.76,48.32c21.62,11.9,44.84,23.58,69.2,35.67 c26.21,13.01,55.43,27.12,86.2,34.78c9.46,2.36,18.97,4.04,28.5,4.74c39.24,2.94,71.43-9.95,97.28-23.47 c19.49-10.2,36.76-21.44,53.92-33.1c23.17-15.83,47.55-32,76.77-47.53c27.69-14.71,61.12-29.38,97.6-43.51 c31.26-12.1,62.87-23.69,94.07-27.73c61.61-7.98,111.4,11.16,163.47,31.37c52.55,20.6,108.44,42.3,175.72,42.07 c75.69-0.25,138.53-28.31,200.23-42.82c16.49-3.81,32.99-6.65,49.9-7.63c46.21-2.85,96.36,8.89,143.1,33.51 c19.4,10.21,38.46,22.9,58.09,34.73c46.03,27.95,89.23,52.74,136.44,60.88c14.98,2.58,30.66,3.51,47.38,1.54 c54.44-6.6,105.54-44.19,160.78-39.65c41.57,3.42,75.3,29.39,113.64,45.23c81.02,33.47,173.28,18.83,252.41,9.25"/><path d="M-141.41,867.12c76.61,40.69,153.31,95.87,229.63,143.32c104.78,65.15,198.18,144.64,287.93,163.8 c61.34,13.1,117.53-6.47,184.5-40.68c23.65-12.08,47.5-27.52,71.1-43.14c90.38-59.97,194.24-122.24,285.8-117.3 c70.74,3.81,116.11,40.6,168.1,71.27c24.36,14.36,51.01,28.08,79.96,41.64c21.94,10.37,45.55,20.68,70.3,31.66 c26.67,11.83,56.27,25.08,87.27,32.88c9.53,2.4,19.07,4.2,28.6,5.12c39.27,3.83,71.37-6.58,97.23-17.47 c19.47-8.2,36.72-17.34,53.86-26.95c23.13-13.06,47.78-26.47,77.32-39.7c28.1-12.58,61.95-25.58,98.88-39.41 c31.67-11.84,63.36-24.15,94.44-29.34c61.23-10.24,110.73,4.86,162.88,21.41c52.61,16.92,109.11,35.31,176.79,35 c76.16-0.35,139.73-24.5,201.13-34.9c16.4-2.78,32.76-4.42,49.47-4.5c45.64-0.23,94.79,13.73,140.89,39.74 c19.22,10.85,38.21,24.09,58.13,35.91c46.5,27.81,90.58,49.31,138.07,55.55c15.04,1.98,30.76,2.45,47.49,0.2 c54.56-7.53,106.16-44,161.74-39.96c41.82,3.04,76.22,27.79,114.97,43.18c81.87,32.52,174.23,20.55,253.27,14.54"/><path d="M-141.81,861.42c76.9,38.21,153.62,93.24,228.61,141.66c107.32,69.3,198.91,156.73,289.61,183.75 c59.1,17.6,115.49,3.52,183.67-28.16c24.11-11.2,48.44-26.25,72.41-41.65c91.72-59.13,194.58-123.64,285.58-123.18 c70.21,0.35,116.27,30.59,169.06,56.11c24.75,11.97,51.81,23.36,81.16,34.96c22.27,8.8,46.25,17.77,71.39,27.65 c27.13,10.66,57.11,23.04,88.35,30.97c9.6,2.43,19.16,4.36,28.71,5.49c39.3,4.73,71.3-3.21,97.18-11.47 c19.44-6.2,36.67-13.25,53.79-20.8c23.1-10.28,48.02-20.93,77.87-31.87c28.52-10.45,62.78-21.77,100.16-35.3 c32.07-11.58,63.84-24.6,94.82-30.95c60.85-12.49,110.08-1.55,162.28,11.45c52.69,13.13,109.78,28.32,177.87,27.92 c76.63-0.45,140.97-20.57,202.02-26.99c16.32-1.72,32.53-2.35,49.05-1.37c45.07,2.67,93.22,18.57,138.67,45.97 c19.05,11.48,37.95,25.28,58.17,37.09c46.97,27.67,91.94,45.87,139.71,50.22c15.09,1.37,30.86,1.39,47.6-1.14 c54.68-8.46,106.78-43.81,162.7-40.26c42.07,2.67,77.15,26.19,116.29,41.13c82.72,31.58,175.18,22.27,254.13,19.83"/><path d="M-142.2,855.72c77.18,35.73,153.89,90.67,227.59,140.01c109.82,73.52,199.61,168.48,291.29,203.69 c56.86,21.84,113.44,13.51,182.83-15.65c24.57-10.32,49.38-24.97,73.72-40.17c93.07-58.29,194.91-123.42,285.36-129.05 c69.67-4.34,116.44,20.57,170.01,40.95c25.15,9.57,52.59,18.69,82.36,28.28c22.58,7.27,46.95,14.86,72.49,23.64 c27.6,9.48,57.95,21,89.43,29.06c9.66,2.47,19.26,4.52,28.81,5.87c39.33,5.62,71.22,0.15,97.13-5.47 c19.4-4.21,36.64-9.12,53.72-14.65c23.08-7.47,48.28-15.38,78.42-24.03c28.95-8.31,63.6-17.97,101.44-31.19 c32.47-11.32,64.33-25.05,95.19-32.57c60.47-14.73,109.41-7.86,161.69,1.5c52.74,9.44,110.45,21.33,178.94,20.85 c77.1-0.54,142.2-16.64,202.92-19.08c16.25-0.65,32.31-0.22,48.62,1.76c44.49,5.38,91.65,23.42,136.46,52.2 c18.87,12.12,37.72,26.44,58.21,38.27c47.5,27.43,93.29,42.45,141.35,44.89c15.15,0.77,30.96,0.33,47.71-2.47 c54.81-9.39,107.41-43.61,163.67-40.57c42.32,2.3,78.07,24.59,117.62,39.08c83.57,30.63,176.12,23.99,255,25.12"/><path d="M-142.6,850.02c77.46,33.24,154.13,88.16,226.58,138.35c112.29,77.81,200.4,179.88,292.97,223.63 c54.68,25.85,111.4,23.5,181.99-3.13c25.03-9.44,50.33-23.7,75.04-38.69c94.41-57.45,195.24-123.99,285.14-134.93 c69.14-8.41,116.62,10.54,170.97,25.79c25.55,7.17,53.36,14.03,83.57,21.6c22.89,5.74,47.66,11.95,73.58,19.62 c28.06,8.31,58.8,18.96,90.51,27.15c9.73,2.51,19.36,4.68,28.91,6.25c39.36,6.51,71.13,3.5,97.08,0.53 c19.36-2.22,36.59-5.03,53.66-8.5c23.04-4.69,48.54-9.83,78.97-16.2c29.38-6.16,64.43-14.17,102.72-27.08 c32.87-11.06,64.81-25.49,95.57-34.18c60.09-16.97,108.73-14.16,161.1-8.46c52.79,5.75,111.11,14.34,180.01,13.77 c77.57-0.64,143.44-12.71,203.81-11.17c16.17,0.41,32.08,1.92,48.19,4.89c43.91,8.09,90.07,28.28,134.24,58.43 c18.69,12.76,37.47,27.63,58.25,39.45c47.98,27.29,94.64,39.02,142.99,39.56c15.2,0.17,31.06-0.73,47.83-3.81 c54.93-10.32,108.03-43.42,164.63-40.88c42.58,1.92,79,22.99,118.94,37.03c84.41,29.68,177.07,25.7,255.86,30.41"/><path d="M-142.99,844.32c77.75,30.76,154.34,85.69,225.56,136.7c114.71,82.16,201.34,190.95,294.65,243.58 c52.6,29.66,109.35,33.5,181.15,9.38c25.49-8.56,51.27-22.42,76.35-37.2c95.76-56.61,195.57-124.56,284.92-140.8 c68.6-12.47,116.8,0.51,171.93,10.64c25.96,4.77,54.13,9.36,84.77,14.93c23.19,4.21,48.36,9.04,74.68,15.61 c28.52,7.13,59.64,16.92,91.58,25.24c9.8,2.55,19.46,4.84,29.02,6.62c39.39,7.4,71.04,6.85,97.03,6.53 c19.32-0.24,36.54-0.93,53.59-2.35c23-1.92,48.81-4.26,79.52-8.37c29.82-3.99,65.26-10.36,104-22.97 c33.27-10.8,65.3-25.93,95.94-35.79c59.72-19.2,108.05-20.47,160.51-18.42c52.84,2.06,111.78,7.35,181.09,6.7 c78.04-0.74,144.68-8.77,204.71-3.25c16.09,1.48,31.85,4.05,47.76,8.02c43.33,10.8,88.5,33.14,132.03,64.67 c18.52,13.41,37.21,28.82,58.29,40.63c48.45,27.14,95.98,35.6,144.62,34.23c15.25-0.43,31.17-1.75,47.94-5.15 c55.07-11.14,108.65-43.23,165.59-41.18c42.83,1.55,79.92,21.39,120.27,34.98c85.26,28.73,178.01,27.42,256.73,35.7"/><path d="M-143.39,838.62c78.03,28.27,154.52,83.26,224.54,135.04c117.09,86.59,202.51,201.74,296.33,263.52 c50.63,33.33,107.31,43.5,180.32,21.9c25.95-7.68,52.21-21.15,77.66-35.72c97.1-55.77,195.9-125.12,284.69-146.68 c68.06-16.53,116.98-9.53,172.89-4.52c26.36,2.36,54.9,4.7,85.97,8.25c23.5,2.69,49.07,6.13,75.77,11.6 c28.99,5.95,60.48,14.88,92.66,23.33c9.86,2.59,19.56,5,29.12,7c39.42,8.29,70.95,10.19,96.98,12.53 c19.28,1.73,36.48,3.16,53.52,3.8c22.96,0.85,49.08,1.32,80.07-0.54c30.27-1.82,66.09-6.56,105.28-18.86 c33.67-10.55,65.78-26.37,96.31-37.4c59.34-21.43,107.37-26.77,159.92-28.37c52.88-1.62,112.45,0.36,182.16-0.38 c78.51-0.84,145.92-4.83,205.6,4.66c16.01,2.55,31.62,6.18,47.34,11.15c42.75,13.51,86.91,38.01,129.81,70.9 c18.34,14.06,36.96,30.02,58.33,41.81c48.93,27,97.33,32.19,146.26,28.91c15.31-1.03,31.27-2.81,48.05-6.48 c55.2-12.07,109.27-43.04,166.56-41.49c43.08,1.17,80.85,19.78,121.59,32.93c86.11,27.78,178.96,29.14,257.59,40.99"/><path d="M-143.78,832.92c78.32,25.79,154.68,80.87,223.52,133.39c119.41,91.08,203.93,212.3,298.01,283.46 c48.79,36.91,105.27,53.51,179.48,34.42c26.41-6.8,53.16-19.88,78.98-34.23c98.45-54.93,196.23-125.67,284.47-152.55 c67.53-20.57,117.17-19.03,173.85-19.68c26.76-0.31,55.67,0.04,87.17,1.57c23.81,1.16,49.78,3.21,76.87,7.59 c29.45,4.76,61.33,12.85,93.74,21.42c9.93,2.62,19.66,5.17,29.22,7.38c39.45,9.19,70.85,13.52,96.93,18.53 c19.23,3.7,36.43,7.26,53.45,9.95c22.92,3.62,49.39,5.77,80.62,7.29c30.68,1.5,66.91-2.76,106.56-14.75 c34.07-10.29,66.27-26.81,96.69-39.01c58.97-23.65,106.69-33.06,159.33-38.33c52.93-5.3,113.12-6.63,183.24-7.45 c78.97-0.93,147.16-0.88,206.5,12.57c15.93,3.61,31.39,8.31,46.91,14.28c42.17,16.22,85.32,42.89,127.6,77.13 c18.15,14.7,36.71,31.21,58.37,42.99c49.4,26.86,98.68,28.78,147.9,23.58c15.36-1.62,31.37-3.87,48.16-7.82 c55.32-13,109.9-42.85,167.52-41.8c43.34,0.8,81.77,18.18,122.92,30.88c86.95,26.83,179.9,30.86,258.45,46.28"/><path d="M-144.18,827.22c78.6,23.31,154.8,78.51,222.51,131.73c121.67,95.63,205.65,222.66,299.69,303.4 c47.08,40.42,103.23,63.51,178.64,46.93c26.88-5.91,54.1-18.6,80.29-32.75c99.79-54.09,196.57-126.21,284.25-158.43 c66.99-24.62,117.35-29.63,174.81-34.84c27.17-2.46,56.44-4.62,88.38-5.11c24.12-0.36,50.48,0.29,77.96,3.58 c29.92,3.58,62.17,10.81,94.82,19.51c10,2.66,19.76,5.33,29.33,7.75c39.48,10.08,70.77,16.83,96.88,24.53 c19.19,5.66,36.38,11.35,53.39,16.1c22.88,6.39,49.62,12.52,81.17,15.12c31.16,2.57,67.74,1.05,107.84-10.64 c34.48-10.03,66.76-27.24,97.06-40.62c58.59-25.86,106.01-39.36,158.74-48.29c52.97-8.97,113.79-13.61,184.31-14.53 c79.44-1.03,148.4,3.06,207.39,20.48c15.85,4.68,31.16,10.44,46.48,17.41c41.6,18.92,83.73,47.77,125.38,83.36 c17.97,15.36,36.45,32.41,58.41,44.17c49.87,26.72,100.03,25.37,149.53,18.25c15.41-2.22,31.47-4.97,48.28-9.15 c55.42-14.04,110.52-42.66,168.49-42.11c43.59,0.42,82.7,16.58,124.24,28.83c87.8,25.88,180.85,32.57,259.32,51.57"/><path d="M-144.57,821.52c78.88,20.82,154.9,76.18,221.49,130.07c123.88,100.25,207.65,232.91,301.37,323.35 c45.5,43.91,101.2,73.52,177.8,59.45c27.34-5.02,55.04-17.33,81.6-31.27c101.14-53.25,196.91-126.74,284.03-164.3 c66.46-28.65,117.53-39.69,175.77-50c27.57-4.88,57.21-9.28,89.58-11.78c24.43-1.89,51.19-2.62,79.06-0.43 c30.38,2.39,63.01,8.77,95.89,17.6c10.06,2.7,19.86,5.49,29.43,8.13c39.51,10.97,70.68,20.14,96.83,30.53 c19.16,7.61,36.33,15.43,53.32,22.25c22.84,9.16,49.89,18.14,81.72,22.95c31.6,4.78,68.57,4.85,109.12-6.54 c34.88-9.77,67.24-27.67,97.44-42.23c58.23-28.07,105.33-45.65,158.15-58.25c53.02-12.65,114.45-20.6,185.38-21.6 c79.91-1.13,149.64,7.01,208.29,28.4c15.78,5.75,30.94,12.57,46.05,20.54c41.02,21.62,82.13,52.65,123.17,89.59 c17.78,16.01,36.2,33.6,58.45,45.35c50.34,26.58,101.38,21.97,151.17,12.92c15.47-2.81,31.57-6.03,48.39-10.49 c55.54-14.97,111.14-42.47,169.45-42.41c43.84,0.05,83.62,14.98,125.57,26.78c88.65,24.94,181.8,34.29,260.18,56.86"/><path d="M-144.97,815.82C-65.8,834.16,10,889.7,75.5,944.24c126.02,104.94,209.93,243.07,303.04,343.29 c44.03,47.39,99.16,83.54,176.97,71.96c27.8-4.14,55.99-16.05,82.92-29.78c102.48-52.41,197.26-127.27,283.81-170.18 c65.94-32.68,117.7-49.75,176.73-65.15c27.98-7.3,57.98-13.94,90.78-18.46c24.74-3.41,51.9-5.54,80.16-4.44 c30.85,1.21,63.85,6.73,96.97,15.69c10.13,2.74,19.96,5.65,29.53,8.51c39.54,11.86,70.61,23.45,96.78,36.53 c19.12,9.56,36.3,19.49,53.25,28.39c22.83,11.88,50.15,23.77,82.27,30.79c32.03,7,69.4,8.65,110.4-2.43 c35.28-9.51,67.74-28.1,97.81-43.84c57.86-30.28,104.65-51.94,157.55-68.2c53.07-16.32,115.12-27.59,186.46-28.68 c80.38-1.22,150.87,10.97,209.18,36.31c15.7,6.82,30.71,14.7,45.63,23.67c40.45,24.32,80.53,57.54,120.95,95.82 c17.6,16.66,35.92,34.84,58.49,46.53c50.76,26.55,102.73,18.58,152.81,7.59c15.52-3.4,31.67-7.09,48.5-11.83 c55.66-15.9,111.76-42.28,170.41-42.72c44.1-0.32,84.55,13.38,126.89,24.74c89.49,23.99,182.74,36.01,261.04,62.15"/><path d="M-145.37,810.12c79.45,15.85,155.01,71.59,219.45,126.76c128.1,109.68,212.47,253.19,304.72,363.23 c42.68,50.9,97.12,93.56,176.13,84.48c28.27-3.25,56.93-14.78,84.23-28.3c103.82-51.57,197.61-127.8,283.59-176.05 c65.42-36.71,117.88-59.82,177.69-80.31c28.37-9.72,58.77-18.53,91.98-25.14c25.06-4.88,52.6-8.28,81.25-8.45 c31.31-0.19,64.7,4.69,98.05,13.78c10.2,2.78,20.06,5.81,29.63,8.88c39.58,12.75,70.54,26.75,96.73,42.53 c19.1,11.51,36.26,23.58,53.19,34.54c22.79,14.65,50.4,29.4,82.82,38.62c32.46,9.23,70.22,12.46,111.68,1.68 c35.68-9.25,68.23-28.53,98.18-45.45c57.5-32.48,103.97-58.22,156.96-78.16c53.12-19.99,115.79-34.58,187.53-35.75 c80.85-1.32,152.1,14.92,210.08,44.22c15.62,7.89,30.48,16.83,45.2,26.8c39.87,27.02,78.92,62.43,118.74,102.05 c17.4,17.32,35.66,36.03,58.53,47.71c51.24,26.4,104.09,15.18,154.44,2.26c15.58-4,31.77-8.15,48.61-13.16 c55.78-16.83,112.38-42.09,171.38-43.03c44.35-0.7,85.47,11.78,128.21,22.69c90.34,23.04,183.69,37.73,261.91,67.45"/><path d="M-145.76,804.42c79.74,13.37,155.03,69.32,218.44,125.11c130.12,114.49,215.23,263.32,306.4,383.17 c41.42,54.45,95.08,103.58,175.29,96.99c28.73-2.36,57.87-13.51,85.54-26.81c105.17-50.73,197.97-128.32,283.37-181.93 c64.9-40.74,118.04-69.89,178.65-95.47c28.77-12.14,59.54-23.2,93.19-31.82c25.37-6.41,53.31-11.39,82.35-12.46 c31.78-1.17,65.54,2.65,99.13,11.87c10.26,2.82,20.16,5.97,29.74,9.26c39.61,13.65,70.48,30.05,96.68,48.53 c19.08,13.46,36.21,27.68,53.12,40.69c22.76,17.42,50.64,35.04,83.37,46.45c32.87,11.46,71.05,16.26,112.96,5.79 c36.08-9,68.72-28.95,98.56-47.06c57.14-34.68,103.35-64.41,156.37-88.12c53.22-23.55,116.46-41.57,188.6-42.83 c81.32-1.42,153.33,18.88,210.97,52.13c15.53,8.96,30.28,18.93,44.77,29.93c39.36,29.64,77.31,67.32,116.52,108.28 c17.21,17.98,35.41,37.23,58.57,48.89c51.71,26.26,105.45,11.79,156.08-3.07c15.63-4.59,31.87-9.21,48.73-14.5 c55.91-17.76,113.01-41.9,172.34-43.33c44.6-1.07,86.4,10.18,129.54,20.64c91.19,22.09,184.63,39.44,262.77,72.74"/><path d="M-146.16,798.72C-66.14,809.6,8.87,865.78,71.26,922.17c132.06,119.35,218.2,273.48,308.08,403.12 c40.24,58.04,93.04,113.6,174.45,109.51c29.19-1.47,58.82-12.23,86.86-25.33c106.51-49.89,198.33-128.84,283.15-187.8 c64.39-44.76,118.2-79.96,179.61-110.63c29.16-14.57,60.32-27.86,94.39-38.5c25.68-7.94,54.01-14.31,83.44-16.47 c32.24-2.37,66.38,0.61,100.2,9.96c10.33,2.85,20.26,6.13,29.84,9.64c39.64,14.54,70.43,33.36,96.63,54.53 c19.06,15.4,36.16,31.77,53.05,46.84c22.72,20.19,50.88,40.68,83.92,54.28c33.28,13.7,71.88,20.06,114.24,9.9 c36.48-8.74,69.22-29.38,98.93-48.67c56.79-36.88,102.67-70.71,155.78-98.07c53.27-27.23,117.13-48.56,189.68-49.9 c81.79-1.51,154.49,22.94,211.87,60.05c15.44,10.06,30.05,21.06,44.34,33.06c38.79,32.35,75.69,72.22,114.31,114.51 c17.02,18.64,35.16,38.42,58.61,50.08c52.18,26.12,106.8,8.4,157.72-8.39c15.69-5.18,31.97-10.27,48.84-15.84 c56.03-18.69,113.63-41.71,173.3-43.64c44.86-1.45,87.32,8.58,130.86,18.59c92.03,21.14,185.58,41.16,263.63,78.03"/><path d="M-146.55,793.02c80.31,8.4,155,64.82,216.4,121.8c133.93,124.27,221.34,283.68,309.76,423.06 c39.13,61.67,90.99,123.63,173.62,122.02c29.65-0.58,59.76-10.96,88.17-23.85c107.86-49.05,198.7-129.36,282.92-193.68 c63.88-48.79,118.36-90.03,180.56-125.78c29.56-16.99,61.09-32.52,95.59-45.17c26-9.46,54.72-17.24,84.54-20.48 c32.7-3.56,67.22-1.43,101.28,8.05c10.4,2.89,20.36,6.29,29.94,10.01c39.67,15.43,70.37,36.66,96.58,60.53 c19.05,17.35,36.12,35.86,52.98,52.99c22.69,22.96,51.11,46.33,84.47,62.11c33.69,15.94,72.71,23.87,115.52,14.01 c36.88-8.48,69.72-29.8,99.31-50.28c56.44-39.07,102-77,155.19-108.03c53.33-30.91,117.8-55.55,190.75-56.98 c82.26-1.61,155.72,26.88,212.76,67.96c15.35,11.13,29.83,23.19,43.91,36.19c38.22,35.06,74.07,77.12,112.09,120.74 c16.82,19.3,34.9,39.62,58.65,51.26c52.66,25.98,108.17,5.02,159.36-13.72c15.75-5.77,32.07-11.33,48.95-17.17 c56.15-19.62,114.25-41.52,174.27-43.95c45.11-1.82,88.25,6.98,132.19,16.54c92.88,20.19,186.52,42.88,264.5,83.32"/><path d="M-146.95,787.32C-66.36,793.23,8,849.91,68.44,907.46c135.73,129.25,224.61,293.94,311.44,443 c38.07,65.36,88.95,133.8,172.78,134.54c30.11,0.37,60.7-9.69,89.48-22.36c109.2-48.21,199.08-129.87,282.7-199.55 c63.38-52.81,118.44-100.21,181.52-140.94c29.92-19.46,61.87-37.18,96.79-51.85c26.31-10.99,55.41-20.22,85.63-24.49 c33.15-4.82,68.07-3.47,102.36,6.14c10.46,2.93,20.46,6.45,30.05,10.39c39.7,16.32,70.33,39.97,96.53,66.53 c19.04,19.3,36.07,39.95,52.92,59.14c22.66,25.73,51.33,51.97,85.02,69.94c34.08,18.18,73.54,27.67,116.8,18.12 c37.29-8.22,70.22-30.22,99.68-51.89c56.09-41.26,101.33-83.3,154.6-117.99c53.39-34.59,118.46-62.54,191.83-64.05 c82.73-1.71,156.95,30.82,213.66,75.87c15.27,12.2,29.6,25.32,43.49,39.32c37.64,37.77,72.44,82.02,109.88,126.98 c16.62,19.96,34.65,40.81,58.69,52.44c53.13,25.84,109.53,1.64,160.99-19.05c15.81-6.35,32.17-12.39,49.06-18.51 c56.27-20.55,114.87-41.33,175.23-44.26c45.36-2.19,89.17,5.38,133.51,14.49c93.73,19.24,187.47,44.59,265.36,88.61"/><path d="M-147.34,781.62c80.87,3.43,154.88,60.37,214.37,118.49c137.45,134.29,228,304.26,313.12,462.95 c37.07,69.1,86.9,143.8,171.94,147.06c30.57,1.25,61.65-8.41,90.8-20.88c110.55-47.37,199.6-130.24,282.48-205.43 c62.98-56.72,118.6-110.25,182.48-156.1c30.31-21.87,62.64-41.84,98-58.53c26.62-12.51,56.11-23.14,86.73-28.51 c33.61-6,68.91-5.5,103.44,4.23c10.53,2.97,20.56,6.62,30.15,10.76c39.73,17.21,70.29,43.27,96.48,72.53 c19.03,21.26,36.03,44.05,52.85,65.29c22.62,28.5,51.54,57.62,85.57,77.78c34.47,20.42,74.36,31.48,118.08,22.23 c37.69-7.96,70.72-30.64,100.05-53.5c55.75-43.45,100.66-89.6,154.01-127.95c53.44-38.27,119.13-69.53,192.9-71.13 c83.2-1.8,158.18,34.76,214.55,83.79c15.19,13.26,29.38,27.46,43.06,42.45c37.07,40.47,70.81,86.92,107.66,133.21 c16.42,20.62,34.39,42.01,58.73,53.62c53.6,25.7,110.9-1.74,162.63-24.38c15.86-6.94,32.28-13.45,49.18-19.84 c56.4-21.48,115.5-41.14,176.19-44.56c45.61-2.57,90.1,3.78,134.84,12.44c94.58,18.29,188.42,46.31,266.23,93.9"/><path d="M-147.74,775.92c81.16,0.95,154.79,58.15,213.35,116.83c139.09,139.37,231.48,314.66,314.8,482.89 c36.1,72.89,84.85,153.81,171.1,159.57c31.03,2.14,62.59-7.14,92.11-19.39c111.89-46.53,199.96-130.8,282.26-211.3 c62.47-60.77,118.76-120.3,183.44-171.26c30.7-24.28,63.42-46.5,99.2-65.21c26.93-14.04,56.82-26.05,87.82-32.52 c34.07-7.19,69.75-7.54,104.51,2.32c10.6,3.01,20.66,6.78,30.25,11.14c39.76,18.11,70.24,46.58,96.43,78.53 c19.02,23.21,35.98,48.14,52.78,71.44c22.59,31.27,51.75,63.26,86.12,85.61c34.85,22.66,75.19,35.28,119.36,26.33 c38.09-7.71,71.23-31.06,100.43-55.11c55.41-45.64,99.99-95.9,153.41-137.9c53.5-41.95,119.8-76.52,193.97-78.2 c83.66-1.9,159.41,38.71,215.45,91.7c15.11,14.33,29.15,29.59,42.63,45.58c36.5,43.18,69.17,91.82,105.45,139.44 c16.21,21.28,34.14,43.2,58.77,54.8c54.08,25.56,112.32-5.03,164.27-29.71c15.94-7.5,32.38-14.51,49.29-21.18 c56.52-22.41,116.12-40.95,177.16-44.87c45.87-2.94,91.02,2.18,136.16,10.39c95.42,17.35,189.36,48.03,267.09,99.19"/><path d="M-148.14,770.22c81.44-1.53,154.67,55.94,212.33,115.18c140.65,144.51,235.03,325.12,316.48,502.83 c35.16,76.72,82.8,163.82,170.27,172.09c31.49,3.02,63.53-5.86,93.42-17.91c113.24-45.69,200.32-131.36,282.04-217.17 c61.95-64.83,118.92-130.34,184.4-186.41c31.1-26.69,64.2-51.17,100.4-71.89c27.25-15.56,57.52-28.97,88.92-36.53 c34.53-8.37,70.6-9.58,105.59,0.41c10.66,3.04,20.76,6.94,30.36,11.52c39.79,19,70.25,49.86,96.38,84.53 c19.05,25.14,35.93,52.23,52.72,77.59c22.55,34.04,51.95,68.9,86.67,93.44c35.23,24.9,76.02,39.08,120.64,30.44 c38.49-7.45,71.77-31.44,100.8-56.72c55.14-47.76,99.32-102.19,152.82-147.86c53.55-45.63,120.47-83.51,195.05-85.28 c84.13-2,160.64,42.65,216.34,99.61c15.03,15.4,28.92,31.72,42.2,48.71c35.93,45.89,67.53,96.72,103.23,145.67 c16.01,21.94,33.89,44.4,58.81,55.98c54.55,25.42,113.68-8.44,165.9-35.04c16-8.1,32.48-15.56,49.4-22.52 c56.64-23.34,116.74-40.76,178.12-45.18c46.12-3.32,91.95,0.58,137.49,8.34c96.27,16.4,190.31,49.75,267.95,104.48"/><path d="M-148.53,764.52c81.73-4.02,154.54,53.73,211.31,113.52c142.14,149.7,238.64,335.66,318.15,522.77 c34.25,80.6,80.75,173.82,169.43,184.6c31.95,3.91,64.48-4.59,94.74-16.43c114.58-44.85,200.68-131.91,281.82-223.05 c61.44-68.88,119.08-140.39,185.36-201.57c31.49-29.1,64.97-55.83,101.6-78.57c27.56-17.09,58.22-31.89,90.01-40.54 c34.99-9.55,71.44-11.62,106.67-1.5c10.73,3.08,20.86,7.1,30.46,11.89c39.82,19.89,70.19,53.2,96.33,90.53 c19.03,27.11,35.89,56.33,52.65,83.74c22.52,36.81,52.12,74.59,87.22,101.27c35.57,27.18,76.85,42.89,121.92,34.55 c38.89-7.19,72.27-31.88,101.18-58.33c54.78-49.98,98.65-108.49,152.23-157.82c53.61-49.31,121.14-90.49,196.12-92.35 c84.6-2.09,161.86,46.59,217.24,107.52c14.95,16.46,28.7,33.85,41.78,51.84c35.36,48.6,65.83,101.66,101.02,151.9 c15.77,22.62,33.63,45.59,58.85,57.16c55.03,25.28,115.04-11.85,167.54-40.37c16.05-8.69,32.58-16.62,49.51-23.85 c56.76-24.27,117.36-40.57,179.08-45.48c46.37-3.69,92.87-1.02,138.81,6.29c97.12,15.45,191.25,51.46,268.82,109.77"/><path d="M-148.93,758.81c82.01-6.5,154.39,51.52,210.3,111.86c143.54,154.94,242.28,346.26,319.83,542.72 c33.36,84.52,78.71,183.83,168.59,197.12c32.41,4.79,65.42-3.32,96.05-14.94c245.25-93.1,352.58-385.2,570.72-530.9 c58.57-39.12,131.19-67.52,198.85-47.96c88.14,25.48,134.1,118.92,179.42,198.69s120.61,163.7,210.97,147.76 c39.29-6.93,72.76-32.32,101.55-59.94c54.42-52.21,97.98-114.79,151.64-167.77c53.66-52.99,121.81-97.48,197.19-99.43 c85.07-2.19,163.09,50.53,218.13,115.44c55.04,64.9,92.79,142.4,140.15,213.1c15.59,23.27,33.38,46.79,58.89,58.34 c55.5,25.14,116.4-15.26,169.18-45.69c196.72-113.44,462.05-93.39,639.49,48.32"/><path d="M-156.58,781.2c80.91-5.98,152.56,49.74,208.38,107.49c143.19,148.28,243.29,330.22,322.95,517.99 c34.35,80.76,80.2,175.92,168.87,188.73c31.98,4.62,64.54-3.11,94.81-14.17c35.04-12.82,67.3-29.57,97.51-49.24 c178.51-116.21,283.85-334.5,467.63-450.74c8.52-5.38,17.33-10.55,26.38-15.37c52.24-27.88,112.41-44.5,169.17-27.7 c86.75,25.67,133.07,116.46,178.84,193.79c45.79,77.33,120.42,158.03,209.66,142.88c41.21-6.99,76.67-32.38,107.4-60.57 c32.1-29.47,60.78-62.53,89.46-95.5c23.08-26.55,46.44-53.12,71.87-77.43c30.69-29.27,65.59-55.49,103.66-72.41 c32.95-14.7,67.49-22.58,103.41-21.35c30.74,0.99,60.54,8.76,88.99,20.96c28.35,12.18,55.58,28.79,80.84,47.13 c21.3,15.45,41.62,31.52,58.64,49.63c56.3,59.9,91.81,135.58,138.64,202.83c15.41,22.13,32.93,44.51,57.88,55.38 c54.28,23.65,113.74-15.72,165.41-45.48c192.7-110.99,451.43-93.23,626,43.29"/><path d="M-164.23,803.58c79.81-5.45,150.74,47.96,206.46,103.11c142.83,141.61,244.3,314.19,326.07,493.26 c35.34,77,81.7,168.01,169.15,180.35c31.56,4.45,63.67-2.91,93.57-13.4c34.59-12.16,66.5-28.03,96.44-46.6 c176.95-109.72,282.12-314.61,463.12-422.46c8.39-5,17.06-9.78,25.96-14.24c51.37-25.8,110.43-40.87,166.27-23.95 c85.35,25.86,132.03,114,178.26,188.89c46.26,74.89,120.24,152.4,208.35,138c43.13-7.05,80.57-32.44,113.25-61.2 c34.08-30.03,64.65-64.08,94.97-98.15c24.36-27.4,49.13-54.98,76.04-79.94c32.64-30.17,69.57-56.68,109.77-72.24 c34.72-13.54,70.36-19.23,107.17-15.86c31.43,2.75,61.87,12.23,91.19,25.59c29.28,13.39,57.88,30.72,84.81,48.46 c22.72,14.94,44.98,28.88,62.82,45.97c57.29,54.88,90.84,128.76,137.13,192.56c15.23,21,32.49,42.23,56.87,52.41 c53.05,22.16,111.09-16.17,161.65-45.26c188.67-108.54,440.82-93.08,612.52,38.26"/><path d="M-171.89,825.97c78.71-4.93,148.91,46.18,204.54,98.73c142.48,134.95,245.31,298.15,329.19,468.53 c36.32,73.24,83.2,160.1,169.43,171.96c31.13,4.28,62.79-2.7,92.34-12.62c34.14-11.51,65.71-26.48,95.37-43.96 c175.39-103.23,280.39-294.71,458.6-394.19c8.26-4.61,16.79-9.01,25.55-13.11c50.51-23.73,108.45-37.23,163.37-20.2 c83.96,26.05,130.99,111.54,177.67,183.99c46.72,72.45,120.07,146.82,207.04,133.12c45.05-7.1,84.48-32.5,119.1-61.83 c36.05-30.59,68.51-65.63,100.47-100.8c25.65-28.24,51.83-56.84,80.22-82.44c34.59-31.07,73.54-57.86,115.89-72.08 c36.5-12.38,73.2-15.77,110.92-10.36c32.11,4.6,63.2,15.69,93.4,30.21c30.22,14.6,60.19,32.65,88.77,49.78 c24.13,14.44,48.24,26.17,67,42.31c57.98,49.89,89.86,121.94,135.62,182.29c15.04,19.87,32.04,39.95,55.86,49.45 c51.83,20.67,108.44-16.63,157.88-45.04c184.65-106.08,430.21-92.92,599.03,33.24"/><path d="M-179.54,848.35c77.61-4.4,147.08,44.4,202.62,94.35c142.12,128.29,246.32,282.11,332.31,443.8 c37.31,69.49,84.7,152.19,169.71,163.58c30.71,4.11,61.92-2.5,91.1-11.85c33.68-10.85,64.91-24.94,94.31-41.32 c173.83-96.74,278.66-274.81,454.09-365.91c8.13-4.22,16.53-8.25,25.14-11.99c49.64-21.65,106.47-33.6,160.47-16.45 c82.56,26.24,129.95,109.09,177.09,179.08c47.19,70.01,119.9,141.28,205.73,128.23c46.97-7.14,88.39-32.56,124.94-62.45 c38.03-31.16,72.37-67.18,105.98-103.45c26.93-29.09,54.53-58.7,84.39-84.95c36.55-31.97,77.52-59.05,122.01-71.91 c38.28-11.22,76.06-12.39,114.68-4.87c32.8,6.39,64.53,19.15,95.6,34.83c31.15,15.8,62.49,34.58,92.73,51.11 c25.55,13.93,51.4,23.39,71.18,38.65c58.35,44.99,88.89,115.12,134.11,172.02c14.86,18.73,31.59,37.67,54.86,46.49 c50.61,19.18,105.79-17.09,154.12-44.83c180.62-103.63,419.59-92.76,585.54,28.21"/><path d="M-187.19,870.73c76.51-3.88,145.26,42.63,200.7,89.97c141.77,121.63,246.94,266.3,335.43,419.07 c38.13,65.83,86.2,144.28,169.98,155.19c30.29,3.94,61.04-2.3,89.86-11.08c33.23-10.2,64.11-23.4,93.24-38.68 c172.27-90.25,276.93-254.91,449.57-337.64c8-3.83,16.26-7.48,24.72-10.86c48.77-19.58,104.5-29.97,157.58-12.7 c81.17,26.43,128.91,106.63,176.51,174.18c47.66,67.57,119.74,135.77,204.42,123.35c48.9-7.17,92.29-32.62,130.79-63.08 c40-31.72,76.23-68.73,111.49-106.09c28.22-29.94,57.23-60.56,88.57-87.46c38.5-32.87,81.52-60.14,128.12-71.74 c40.07-9.98,78.91-9.01,118.43,0.63c33.48,8.16,65.86,22.61,97.8,39.45c32.08,17.01,64.79,36.51,96.69,52.43 c26.96,13.42,54.46,20.58,75.36,34.98c58.38,40.24,87.91,108.31,132.6,161.75c14.68,17.6,31.15,35.39,53.85,43.52 c49.39,17.69,103.14-17.55,150.35-44.61c176.59-101.18,408.98-92.6,572.05,23.18"/><path d="M-194.85,893.12c75.41-3.35,143.43,40.85,198.78,85.59c141.41,114.97,247.89,250.33,338.55,394.34 c39.09,62.09,87.7,136.37,170.26,146.81c29.86,3.77,60.17-2.09,88.63-10.3c32.78-9.54,63.31-21.85,92.17-36.03 c170.71-83.76,275.19-235.01,445.06-309.36c7.88-3.44,15.99-6.71,24.31-9.73c47.91-17.5,102.52-26.34,154.68-8.94 c79.77,26.62,127.87,104.17,175.92,169.28c48.13,65.13,119.59,130.3,203.11,118.47c50.83-7.2,96.2-32.68,136.64-63.71 c41.98-32.28,80.09-70.29,117-108.74c29.5-30.79,59.93-62.41,92.74-89.97c40.46-33.76,85.49-61.31,134.24-71.57 c41.85-8.81,81.76-5.64,122.19,6.12c34.17,9.94,67.19,26.07,100,44.07c33.02,18.22,67.1,38.43,100.65,53.76 c28.38,12.91,55.22,22.23,79.54,31.32c50.17,46.16,86.94,101.49,131.09,151.48c14.5,16.47,30.7,33.11,52.84,40.56 c48.16,16.2,100.48-18.01,146.59-44.39c172.57-98.73,398.37-92.45,558.57,18.15"/><path d="M-202.5,915.5c74.31-2.83,141.61,39.07,196.86,81.21c141.06,108.3,248.84,234.35,341.67,369.61 c40.05,58.36,89.2,128.46,170.54,138.43c29.44,3.59,59.29-1.89,87.39-9.53c32.32-8.89,62.51-20.31,91.1-33.39 c169.15-77.27,273.46-215.11,440.54-281.09c7.75-3.05,15.73-5.95,23.89-8.6c47.04-15.42,100.54-22.71,151.78-5.19 c78.38,26.81,126.84,101.71,175.34,164.38c48.6,62.69,119.44,124.85,201.8,113.59c52.76-7.21,100.11-32.74,142.49-64.34 c43.95-32.85,83.95-71.84,122.51-111.39c30.79-31.64,62.63-64.27,96.92-92.47c42.41-34.66,89.47-62.49,140.36-71.4 c43.62-7.64,84.61-2.27,125.94,11.62c34.85,11.71,68.52,29.54,102.2,48.69c33.95,19.42,69.4,40.36,104.62,55.08 c29.79,12.41,58.06,20.25,83.72,27.66c49.35,43.04,85.96,94.67,129.58,141.21c14.32,15.33,30.26,30.83,51.83,37.59 c46.94,14.71,97.83-18.46,142.82-44.17c168.54-96.28,387.75-92.29,545.08,13.13"/><path d="M-210.15,937.89c73.21-2.3,139.78,37.29,194.95,76.83c140.7,101.64,249.81,218.38,344.78,344.88 c41.02,54.63,90.7,120.55,170.82,130.04c29.01,3.42,58.42-1.69,86.15-8.76c31.87-8.23,61.71-18.76,90.04-30.75 c167.59-70.78,271.73-195.22,436.03-252.81c7.62-2.66,15.46-5.18,23.48-7.47c46.17-13.35,98.56-19.08,148.89-1.44 c76.98,27,125.8,99.26,174.76,159.47c49.07,60.25,119.3,119.42,200.49,108.71c54.69-7.22,104.01-32.8,148.34-64.96 c45.93-33.41,87.82-73.39,128.02-114.04c32.07-32.48,65.33-66.13,101.09-94.98c44.37-35.56,93.44-63.67,146.47-71.23 c45.4-6.48,87.47,1.09,129.7,17.11c35.54,13.48,69.85,33,104.4,53.31c34.88,20.63,71.7,42.29,108.58,56.41 c31.21,11.9,60.9,18.28,87.9,24c48.54,39.92,84.99,87.85,128.07,130.94c14.14,14.2,29.81,28.55,50.82,34.63 c45.72,13.22,95.18-18.92,139.06-43.96c164.52-93.83,377.14-92.13,531.59,8.1"/><path d="M-217.8,960.27c72.11-1.78,138.03,35.4,193.03,72.45c140.54,94.69,250.78,202.41,347.9,320.16 c41.99,50.91,92.2,112.64,171.1,121.66c28.59,3.25,57.54-1.48,84.91-7.98c31.42-7.58,60.91-17.22,88.97-28.11 c166.03-64.29,270-175.32,431.51-224.54c7.49-2.27,15.19-4.41,23.07-6.34c45.31-11.27,96.58-15.44,145.99,2.31 c75.59,27.19,124.76,96.8,174.17,154.57c49.53,57.81,119.16,114.02,199.18,103.83c56.63-7.21,107.92-32.86,154.19-65.59 c47.91-33.98,91.68-74.94,133.53-116.69c33.36-33.33,68.03-67.99,105.27-97.49c46.32-36.46,97.41-64.85,152.59-71.06 c47.17-5.31,90.32,4.45,133.45,22.6c36.22,15.24,71.18,36.46,106.6,57.93c35.81,21.84,74.01,44.22,112.54,57.73 c32.62,11.39,63.74,16.3,92.09,20.34c47.73,36.8,84.01,81.04,126.56,120.67c13.96,13.07,29.36,26.28,49.81,31.67 c44.5,11.73,92.53-19.38,135.3-43.74c160.49-91.37,366.53-91.97,518.1,3.07"/><path d="M-225.46,982.65c71.01-1.25,136.21,33.61,191.11,68.07c140.19,88,251.77,186.45,351.02,295.43 c42.97,47.18,93.7,104.73,171.38,113.27c28.16,3.08,56.67-1.28,83.68-7.21c30.96-6.92,60.11-15.67,87.9-25.47 c164.47-57.8,268.27-155.42,427-196.26c7.36-1.88,14.93-3.65,22.65-5.21c44.44-9.19,94.6-11.81,143.09,6.07 c74.2,27.38,123.72,94.34,173.59,149.67c50,55.37,119.02,108.63,197.87,98.94c58.56-7.19,111.83-32.92,160.04-66.22 c49.88-34.54,95.54-76.49,139.04-119.33c34.64-34.18,70.73-69.84,109.44-100c48.27-37.36,101.38-66.03,158.71-70.9 c48.94-4.15,93.18,7.81,137.21,28.1c36.91,17.01,72.51,39.92,108.8,62.55c36.75,23.04,76.31,46.15,116.5,59.06 c34.04,10.88,66.58,14.32,96.27,16.68c46.92,33.67,83.04,74.22,125.05,110.4c13.78,11.93,28.92,24,48.81,28.7 c43.27,10.24,89.87-19.84,131.53-43.52c156.47-88.92,355.91-91.81,504.61-1.96"/><path d="M-233.11,1005.04c69.91-0.73,134.38,31.82,189.19,63.7c139.83,81.32,252.77,170.48,354.14,270.7 c43.95,43.45,95.2,96.82,171.66,104.89c27.74,2.91,55.8-1.02,82.44-6.44c30.52-6.21,59.31-14.13,86.84-22.83 c162.91-51.32,266.54-135.52,422.48-167.99c7.24-1.5,14.66-2.86,22.24-4.08c43.59-7.03,92.62-8.18,140.19,9.82 c72.8,27.57,122.68,91.88,173.01,144.77c50.47,52.93,118.89,103.26,196.56,94.06c60.5-7.17,115.74-32.98,165.89-66.84 c51.86-35.1,99.4-78.04,144.54-121.98c35.93-35.03,73.43-71.7,113.62-102.5c50.23-38.26,105.36-67.22,164.82-70.73 c50.72-2.99,96.03,11.17,140.96,33.59c37.6,18.77,73.84,43.39,111,67.17c37.68,24.25,78.61,48.08,120.46,60.38 c35.45,10.38,69.42,12.35,100.45,13.02c46.1,30.55,82.06,67.4,123.54,100.13c13.6,10.8,28.47,21.72,47.8,25.74 c42.05,8.75,87.22-20.3,127.77-43.3c152.44-86.47,345.3-91.66,491.13-6.98"/><path d="M-240.76,1027.42c68.81-0.2,132.55,30.04,187.27,59.32c139.47,74.63,253.78,154.51,357.26,245.97 c44.94,39.72,96.69,88.91,171.93,96.5c27.31,2.74,54.93-0.81,81.2-5.66c30.07-5.55,58.51-12.59,85.77-20.19 c161.35-44.83,264.81-115.62,417.97-139.71c7.11-1.11,14.39-2.1,21.82-2.96c42.72-4.94,90.64-4.55,137.3,13.57 c71.41,27.76,121.64,89.43,172.42,139.87c50.94,50.49,118.75,97.91,195.25,89.18c62.44-7.13,119.64-33.04,171.73-67.47 c53.83-35.67,103.26-79.59,150.05-124.63c37.21-35.87,76.13-73.56,117.79-105.01c52.18-39.16,109.33-68.4,170.94-70.56 c52.49-1.84,98.89,14.52,144.72,39.09c38.29,20.53,75.17,46.85,113.2,71.79c38.61,25.46,80.92,50.01,124.42,61.71 c36.87,9.87,72.26,10.37,104.63,9.36c45.29,27.43,81.09,60.58,122.03,89.86c13.42,9.66,28.03,19.44,46.79,22.78 c40.83,7.26,84.57-20.75,124-43.09c148.41-84.02,334.69-91.5,477.64-12.01"/><path d="M-248.42,1049.81c67.71,0.32,130.72,28.25,185.35,54.94c139.11,67.95,254.82,138.53,360.38,221.24 c45.94,35.99,98.19,81,172.21,88.12c26.89,2.57,54.05-0.61,79.96-4.89c29.61-4.89,57.71-11.04,84.7-17.54 c159.79-38.34,263.08-95.72,413.45-111.44c6.98-0.72,14.13-1.33,21.41-1.83c41.85-2.86,88.67-0.92,134.4,17.32 c70.01,27.95,120.6,86.97,171.84,134.96c51.41,48.04,118.62,92.58,193.94,84.3c64.38-7.08,123.55-33.1,177.58-68.1 c55.81-36.23,107.12-81.14,155.56-127.28c38.5-36.72,78.83-75.42,121.97-107.52c54.14-40.06,113.3-69.71,177.06-70.39 c54.26-0.78,101.75,17.87,148.47,44.58c38.98,22.29,76.5,50.31,115.4,76.41c39.54,26.66,83.22,51.94,128.39,63.04 c38.28,9.36,75.1,8.39,108.81,5.7c44.48,24.3,80.11,53.77,120.52,79.59c13.24,8.53,27.58,17.16,45.78,19.81 c39.6,5.77,81.92-21.21,120.24-42.87c144.39-81.57,324.07-91.34,464.15-17.04"/><path d="M-256.07,1072.19c66.61,0.85,128.89,26.47,183.43,50.56c138.74,61.28,255.86,122.54,363.5,196.51 c46.94,32.26,99.69,73.09,172.49,79.73c26.46,2.4,53.17-0.4,78.73-4.12c29.16-4.24,56.91-9.5,83.63-14.9 c158.23-31.85,261.35-75.83,408.94-83.16c6.85-0.33,13.86-0.56,21-0.7c40.97-0.79,86.69,2.72,131.5,21.08 c68.62,28.14,119.57,84.51,171.26,130.06c51.88,45.6,118.49,87.26,192.63,79.42c66.32-7.01,127.46-33.16,183.43-68.73 c57.78-36.79,110.98-82.69,161.07-129.93c39.79-37.57,81.52-77.28,126.14-110.03c56.09-40.96,117.27-70.9,183.17-70.22 c56.04,0.38,104.62,21.22,152.23,50.08c39.68,24.04,77.83,53.77,117.6,81.03c40.48,27.87,85.52,53.87,132.35,64.36 c39.7,8.85,77.94,6.42,112.99,2.04c43.67,21.18,79.14,46.95,119.01,69.32c13.06,7.4,27.13,14.88,44.77,16.85 c38.38,4.28,79.26-21.67,116.47-42.65c140.36-79.12,313.46-91.18,450.66-22.07"/><path d="M-263.72,1094.57c65.51,1.37,127.06,24.69,181.51,46.18c138.37,54.61,256.92,106.55,366.62,171.78 c47.95,28.52,101.19,65.19,172.77,71.35c26.04,2.23,52.3-0.2,77.49-3.34c28.7-3.58,56.11-7.95,82.57-12.26 c156.67-25.36,259.62-55.93,404.42-54.89c6.72,0.06,13.59,0.21,20.58,0.43c40.1,1.29,84.71,6.35,128.6,24.83 c67.22,28.33,118.53,82.05,170.67,125.16c52.35,43.16,118.36,81.95,191.32,74.54c68.27-6.93,131.36-33.22,189.28-69.35 c59.76-37.36,114.85-84.24,166.58-132.57c41.07-38.42,84.22-79.13,130.32-112.53c58.05-41.85,121.25-72.08,189.29-70.05 c57.82,1.54,107.48,24.57,155.98,55.57c40.37,25.8,79.16,57.23,119.8,85.65c41.41,29.08,87.83,55.79,136.31,65.69 c41.11,8.35,80.78,4.44,117.17-1.62c42.85,18.06,78.2,40.05,117.5,59.05c12.89,6.24,26.69,12.6,43.76,13.89 c37.16,2.79,76.61-22.13,112.71-42.44c136.34-76.66,302.85-91.03,437.18-27.09"/><path d="M-271.38,1116.96c64.41,1.9,125.23,22.91,179.59,41.8c138,47.95,257.99,90.53,369.74,147.05 c48.96,24.77,102.69,57.28,173.05,62.97c25.61,2.06,51.42,0.01,76.25-2.57c28.25-2.93,55.31-6.41,81.5-9.62 c155.11-18.87,257.89-36.03,399.91-26.61c6.59,0.45,13.32,0.97,20.17,1.56c39.23,3.36,82.73,9.98,125.71,28.58 c65.83,28.52,117.49,79.59,170.09,120.26c52.81,40.72,118.23,76.65,190.01,69.65c70.21-6.84,135.27-33.28,195.13-69.98 c61.74-37.92,118.71-85.79,172.09-135.22c42.36-39.27,86.92-80.99,134.49-115.04c60-42.75,125.23-73.27,195.41-69.89 c59.59,2.69,110.34,27.92,159.74,61.07c41.07,27.56,80.49,60.7,122,90.27c42.34,30.28,90.13,57.72,140.27,67.01 c42.53,7.84,83.62,2.46,121.35-5.28c42.04,14.93,77.22,33.22,115.99,48.78c12.71,5.1,26.24,10.32,42.76,10.92 c35.94,1.3,73.96-22.59,108.94-42.22c132.31-74.21,292.23-90.87,423.69-32.12"/><path d="M-279.03,1139.34c63.31,2.42,123.4,21.13,177.68,37.42c137.62,41.29,259.08,74.49,372.85,122.32 c49.98,21.01,104.19,49.37,173.33,54.58c25.19,1.88,50.54,0.21,75.02-1.79c27.79-2.27,54.51-4.86,80.43-6.98 c153.55-12.38,256.16-16.13,395.39,1.66c6.47,0.84,13.06,1.74,19.76,2.69c38.36,5.44,80.75,13.61,122.81,32.33 c64.43,28.71,116.45,77.14,169.51,115.35c53.28,38.28,118.11,71.36,188.7,64.77c72.16-6.73,139.18-33.34,200.98-70.61 c63.71-38.48,122.57-87.34,177.6-137.87c43.64-40.11,89.62-82.85,138.67-117.55c61.95-43.65,129.2-74.45,201.52-69.72 c61.37,3.85,113.21,31.27,163.49,66.56c41.76,29.31,81.81,64.16,124.2,94.89c43.28,31.49,92.43,59.65,144.23,68.34 c43.94,7.33,86.46,0.49,125.53-8.94c41.23,11.81,76.24,26.4,114.48,38.51c12.53,3.97,25.8,8.04,41.75,7.96 c34.71-0.19,71.31-23.04,105.18-42c128.29-71.76,281.62-90.71,410.2-37.15"/><path d="M-286.68,1161.72c62.21,2.95,121.56,19.36,175.76,33.04c137.24,34.65,260.16,58.44,375.97,97.59 c51,17.24,105.69,41.46,173.61,46.2c24.76,1.71,49.67,0.41,73.78-1.02c27.34-1.62,53.71-3.32,79.37-4.34 c151.99-5.89,254.43,3.77,390.88,29.94c6.34,1.23,12.79,2.5,19.34,3.82c37.49,7.51,78.77,17.24,119.91,36.09 c63.04,28.9,115.41,74.68,168.92,110.45c53.75,35.84,117.98,66.08,187.39,59.89c74.11-6.61,143.08-33.4,206.83-71.24 c65.69-39.05,126.43-88.89,183.11-140.52c44.93-40.96,92.32-84.71,142.85-120.06c63.91-44.55,133.18-75.64,207.64-69.55 c63.15,5.01,116.08,34.61,167.25,72.05c42.46,31.07,83.14,67.62,126.4,99.51c44.21,32.69,94.74,61.58,148.2,69.66 c45.36,6.82,89.3-1.49,129.72-12.6c40.42,8.69,75.26,19.59,112.97,28.24c12.34,2.83,25.35,5.77,40.74,4.99 c33.49-1.68,68.65-23.5,101.41-41.78c124.26-69.31,271-90.55,396.71-42.18"/><path d="M-294.33,1184.11c61.11,3.47,119.73,17.59,173.84,28.66c136.87,28,261.25,42.36,379.09,72.86 c52.02,13.47,107.19,33.55,173.88,37.81c24.34,1.54,48.79,0.61,72.54-0.25c26.88-0.97,52.92-1.77,78.3-1.7 c150.43,0.6,252.7,23.66,386.36,58.21c6.21,1.61,12.52,3.27,18.93,4.95c36.62,9.58,76.79,20.87,117.02,39.84 c61.64,29.09,114.37,72.22,168.34,105.55c54.22,33.4,117.85,60.81,186.09,55.01c76.05-6.47,146.99-33.46,212.68-71.86 c67.66-39.61,130.29-90.44,188.61-143.17c46.21-41.81,95.02-86.57,147.02-122.56c65.86-45.45,137.15-76.82,213.76-69.38 c64.92,6.17,119.02,37.87,171,77.55c43.22,32.74,84.47,71.08,128.6,104.13c45.14,33.9,97.04,63.51,152.16,70.99 c46.77,6.32,92.14-3.47,133.9-16.26c39.6,5.56,74.28,12.77,111.46,17.97c12.16,1.7,24.9,3.49,39.73,2.03 c32.27-3.17,66-23.96,97.65-41.57c120.23-66.86,260.39-90.4,383.23-47.2"/><path d="M-301.99,1206.49c60.01,4,117.89,15.82,171.92,24.28c136.49,21.37,262.33,26.25,382.21,48.14 c53.04,9.68,108.69,25.64,174.16,29.43c23.91,1.37,47.91,0.81,71.3,0.53c26.43-0.32,52.12-0.23,77.23,0.94 c148.87,7.09,250.97,43.56,381.85,86.49c6.08,2,12.25,4.04,18.51,6.07c35.75,11.64,74.82,24.51,114.12,43.59 c60.25,29.28,113.33,69.76,167.76,100.65c54.69,30.96,117.73,55.55,184.78,50.13c78-6.31,150.9-33.52,218.53-72.49 c69.64-40.17,134.15-91.99,194.12-145.82c47.5-42.66,97.72-88.42,151.2-125.07c67.82-46.35,141.13-78.01,219.87-69.21 c66.7,7.33,121.88,41.23,174.76,83.04c43.91,34.51,85.8,74.55,130.8,108.75c46.07,35.11,99.34,65.44,156.12,72.31 c48.19,5.81,94.98-5.44,138.08-19.92c38.79,2.44,73.29,5.96,109.95,7.7c11.98,0.57,24.46,1.21,38.72-0.93 c31.05-4.66,63.35-24.42,93.88-41.35c116.21-64.41,249.78-90.24,369.74-52.23"/><path d="M-309.64,1228.88c58.91,4.52,116.06,14.06,170,19.91c136.11,14.75,263.4,10.13,385.33,23.41 c54.06,5.89,110.19,17.73,174.44,21.04c23.49,1.2,47.04,0.96,70.07,1.3c25.97,0.28,51.32,1.31,76.16,3.59 c147.31,13.58,249.24,63.46,377.33,114.76c5.95,2.39,11.99,4.79,18.1,7.2c34.9,13.64,72.84,28.14,111.22,47.34 c58.86,29.47,112.3,67.31,167.17,95.74c55.16,28.52,117.6,50.3,183.47,45.25c79.95-6.13,154.81-33.58,224.37-73.12 c71.61-40.74,138.02-93.54,199.63-148.46c48.78-43.5,100.42-90.28,155.37-127.58c69.77-47.25,145.1-79.19,225.99-69.04 c68.48,8.49,124.74,44.59,178.51,88.54c44.6,36.27,87.13,78.01,133,113.38c47.01,36.31,101.65,67.37,160.08,73.64 c49.6,5.3,95.76-14.96,142.26-23.58c37.35-6.93,72.31-0.85,108.44-2.57c11.8-0.56,24.01-1.07,37.71-3.9 c29.82-6.15,60.7-24.87,90.12-41.13c112.18-61.95,239.16-90.08,356.25-57.26"/><path d="M-317.29,1251.26c57.81,5.05,114.22,12.4,168.08,15.53c135.73,8.38,264.46-6.01,388.45-1.32 c55.06,2.08,111.68,9.82,174.72,12.66c23.06,1.03,46.16,1.17,68.83,2.07c25.52,0.93,50.52,2.86,75.1,6.23 c145.75,20.07,247.5,83.36,372.82,143.04c5.83,2.78,11.72,5.56,17.69,8.33c34.04,15.72,70.86,31.77,108.32,51.1 c57.46,29.66,111.26,64.85,166.59,90.84c55.62,26.08,117.47,45.05,182.16,40.36c81.9-5.94,158.71-33.64,230.22-73.74 c73.59-41.3,141.88-95.09,205.14-151.11c50.07-44.35,103.12-92.14,159.55-130.09c71.72-48.15,149.08-80.38,232.11-68.87 c70.25,9.65,127.6,47.94,182.27,94.03c45.3,38.03,88.46,81.47,135.2,118c47.94,37.52,103.95,69.3,164.04,74.96 c51.02,4.79,98.67-15.71,146.44-27.24c36.32-8.77,71.34-7.59,106.93-12.84c11.62-1.67,23.57-3.35,36.71-6.86 c28.6-7.64,58.04-25.33,86.35-40.91c108.16-59.5,228.55-89.92,342.76-62.29"/><path d="M-324.95,1273.64c56.71,5.57,112.39,10.62,166.16,11.15c135.37,1.71,265.5-22.17,391.57-26.05 c56.06-1.73,113.18,1.91,175,4.27c22.64,0.86,45.29,1.37,67.59,2.85c25.07,1.59,49.72,4.4,74.03,8.87 c144.19,26.56,245.77,103.26,368.3,171.31c5.7,3.17,11.46,6.32,17.27,9.46c33.17,17.8,68.88,35.4,105.43,54.85 c56.07,29.84,110.22,62.39,166.01,85.94c56.09,23.64,117.34,39.82,180.85,35.48c83.85-5.72,162.62-33.7,236.07-74.37 c75.57-41.87,145.74-96.64,210.65-153.76c51.35-45.2,105.82-94,163.72-132.6c73.68-49.05,153.06-81.56,238.22-68.71 c72.03,10.81,130.47,51.3,186.03,99.53c45.99,39.8,89.79,84.93,137.4,122.62c48.87,38.73,106.25,71.23,168,76.29 c52.44,4.29,101.75-16.29,150.62-30.9c35.46-10.6,70.36-14.41,105.42-23.11c11.44-2.81,23.12-5.63,35.7-9.82 c27.38-9.13,55.39-25.79,82.59-40.7c104.13-57.05,217.94-89.76,329.27-67.31"/><path d="M-332.6,1296.03c55.61,6.1,110.57,8.84,164.24,6.77c135.02-4.95,266.52-38.33,394.69-50.78 c57.06-5.54,114.68-6,175.28-4.11c22.21,0.69,44.41,1.58,66.35,3.62c24.61,2.24,48.92,5.95,72.96,11.51 c142.63,33.05,244.04,123.16,363.79,199.59c5.57,3.56,11.19,7.09,16.86,10.59c32.3,19.87,66.9,39.03,102.53,58.6 c54.67,30.03,109.18,59.93,165.42,81.04c56.56,21.19,117.21,34.58,179.54,30.6c85.8-5.48,166.53-33.76,241.92-75 c77.54-42.43,149.6-98.19,216.16-156.41c52.64-46.05,108.52-95.85,167.9-135.1c75.63-49.94,157.03-82.75,244.34-68.54 c73.81,11.97,133.33,54.66,189.78,105.02c46.68,41.56,91.12,88.39,139.6,127.24c49.8,39.93,108.56,73.15,171.97,77.61 c53.85,3.78,105-16.72,154.8-34.56c34.77-12.46,69.39-21.23,103.91-33.38c11.26-3.94,22.67-7.91,34.69-12.79 c26.15-10.62,52.74-26.25,78.82-40.48c100.11-54.6,207.32-89.61,315.79-72.34"/><path d="M-340.25,1318.41c54.51,6.62,108.74,7.07,162.32,2.39c134.66-11.61,267.5-54.64,397.81-75.51 c58.03-9.42,116.18-13.91,175.56-12.49c21.79,0.52,43.54,1.78,65.12,4.39c24.16,2.9,48.12,7.49,71.89,14.15 c141.07,39.54,242.31,143.05,359.27,227.86c5.44,3.95,10.92,7.86,16.45,11.72c31.44,21.95,64.92,42.67,99.63,62.35 c53.28,30.22,108.14,57.48,164.84,76.14c57.03,18.75,117.08,29.36,178.23,25.72c87.75-5.22,170.43-33.82,247.77-75.63 c79.52-42.99,153.46-99.74,221.67-159.06c53.92-46.9,111.22-97.71,172.07-137.61c77.59-50.84,161.01-83.93,250.46-68.37 c75.58,13.13,136.19,58.02,193.54,110.51c47.38,43.33,92.45,91.86,141.8,131.86c50.74,41.14,110.86,75.08,175.93,78.94 c55.27,3.27,108.42-17.04,158.98-38.22c34.26-14.35,68.41-28.05,102.4-43.65c11.08-5.07,22.23-10.19,33.68-15.75 c24.93-12.11,50.09-26.71,75.06-40.26c96.08-52.15,196.71-89.45,302.3-77.37"/><path d="M-347.91,1340.8c293.8,39.33,590.38-194.03,871.87-101.15c146,48.17,249.91,173.99,370.79,268.99 c124.73,98.02,279.51,166.88,437.91,158.18c181.91-10,342.99-118.78,480.79-237.96c125.65-108.67,269.46-238.49,432.82-208.32 c141.21,26.08,230.23,161.46,341.29,252.49c51.67,42.35,113.16,77.01,179.89,80.27c56.68,2.76,112.02-17.3,163.16-41.88 c161.8-77.75,314.55-207.1,493.67-195.07"/></g></g></svg>